<svg id="_0496_consulting" xmlns="http://www.w3.org/2000/svg" xmlns:xlink="http://www.w3.org/1999/xlink" viewBox="0 0 500 500" data-imageid="consulting-48" imageName="Consulting" class="illustrations_image" style="width: 177px;"><defs><style>.cls-1_consulting-48{opacity:.43;}.cls-1_consulting-48,.cls-2_consulting-48,.cls-3_consulting-48,.cls-4_consulting-48,.cls-5_consulting-48,.cls-6_consulting-48,.cls-7_consulting-48,.cls-8_consulting-48,.cls-9_consulting-48,.cls-10_consulting-48,.cls-11_consulting-48,.cls-12_consulting-48,.cls-13_consulting-48,.cls-14_consulting-48,.cls-15_consulting-48,.cls-16_consulting-48,.cls-17_consulting-48,.cls-18_consulting-48,.cls-19_consulting-48,.cls-20_consulting-48,.cls-21_consulting-48,.cls-22_consulting-48,.cls-23_consulting-48,.cls-24_consulting-48,.cls-25_consulting-48,.cls-26_consulting-48,.cls-27_consulting-48{stroke-width:0px;}.cls-1_consulting-48,.cls-3_consulting-48,.cls-5_consulting-48,.cls-14_consulting-48,.cls-15_consulting-48{isolation:isolate;}.cls-1_consulting-48,.cls-14_consulting-48,.cls-22_consulting-48{fill:#d9dbe2;}.cls-2_consulting-48{fill:url(#linear-gradient);}.cls-3_consulting-48{opacity:.18;}.cls-3_consulting-48,.cls-5_consulting-48,.cls-15_consulting-48,.cls-27_consulting-48{fill:#68e1fd;}.cls-4_consulting-48{fill:url(#linear-gradient-10-consulting-48);}.cls-5_consulting-48{opacity:.41;}.cls-6_consulting-48{fill:url(#linear-gradient-4-consulting-48);}.cls-7_consulting-48{fill:url(#linear-gradient-2-consulting-48);}.cls-8_consulting-48{fill:url(#linear-gradient-3-consulting-48);}.cls-9_consulting-48{fill:url(#linear-gradient-8-consulting-48);}.cls-10_consulting-48{fill:url(#linear-gradient-9-consulting-48);}.cls-11_consulting-48{fill:url(#linear-gradient-7-consulting-48);}.cls-12_consulting-48{fill:url(#linear-gradient-5-consulting-48);}.cls-13_consulting-48{fill:url(#linear-gradient-6-consulting-48);}.cls-14_consulting-48{opacity:.38;}.cls-15_consulting-48{opacity:.23;}.cls-16_consulting-48{fill:#282328;}.cls-17_consulting-48{fill:#2f3653;}.cls-18_consulting-48{fill:#231f20;}.cls-19_consulting-48{fill:#dea095;}.cls-20_consulting-48{fill:#d5846c;}.cls-21_consulting-48{fill:#dc9ed5;}.cls-23_consulting-48{fill:#c14834;}.cls-24_consulting-48{fill:#fff;}.cls-25_consulting-48{fill:#eb9d80;}.cls-26_consulting-48{fill:#fdbaac;}</style><linearGradient id="linear-gradient-consulting-48" x1="260.51" y1="2133.25" x2="260.04" y2="2068.99" gradientTransform="translate(-31 2323.65) scale(1 -1)" gradientUnits="userSpaceOnUse"><stop offset="0" stop-color="#231f20"/><stop offset=".08" stop-color="#231f20" stop-opacity=".69"/><stop offset=".21" stop-color="#231f20" stop-opacity=".32"/><stop offset="1" stop-color="#231f20" stop-opacity="0"/></linearGradient><linearGradient id="linear-gradient-2-consulting-48" x1="439.93" y1="1966.17" x2="462.33" y2="1966.17" gradientTransform="translate(-46.51 2278.12) scale(1 -1)" xlink:href="#linear-gradient-consulting-48"/><linearGradient id="linear-gradient-3-consulting-48" x1="389.59" y1="1999.77" x2="389.94" y2="1881.65" gradientTransform="translate(-46.51 2278.12) scale(1 -1)" xlink:href="#linear-gradient-consulting-48"/><linearGradient id="linear-gradient-4-consulting-48" x1="440.81" y1="1965.9" x2="349.44" y2="1949.55" gradientTransform="translate(-46.51 2278.12) scale(1 -1)" xlink:href="#linear-gradient-consulting-48"/><linearGradient id="linear-gradient-5-consulting-48" x1="357.82" y1="300.17" x2="313.08" y2="286.48" gradientTransform="matrix(1,0,0,1,0,0)" xlink:href="#linear-gradient-consulting-48"/><linearGradient id="linear-gradient-6-consulting-48" x1="454.5" y1="1974.13" x2="393.17" y2="1937.13" gradientTransform="translate(-46.51 2278.12) scale(1 -1)" xlink:href="#linear-gradient-consulting-48"/><linearGradient id="linear-gradient-7-consulting-48" x1="4858.74" y1="1966.17" x2="4881.14" y2="1966.17" gradientTransform="translate(4974.07 2278.12) rotate(-180)" xlink:href="#linear-gradient-consulting-48"/><linearGradient id="linear-gradient-8-consulting-48" x1="4808.41" y1="1999.77" x2="4808.76" y2="1881.65" gradientTransform="translate(4974.07 2278.12) rotate(-180)" xlink:href="#linear-gradient-consulting-48"/><linearGradient id="linear-gradient-9-consulting-48" x1="4859.61" y1="1965.91" x2="4768.25" y2="1949.56" gradientTransform="translate(4974.07 2278.12) rotate(-180)" xlink:href="#linear-gradient-consulting-48"/><linearGradient id="linear-gradient-10-consulting-48" x1="4873.31" y1="1974.13" x2="4811.98" y2="1937.13" gradientTransform="translate(4974.07 2278.12) rotate(-180)" xlink:href="#linear-gradient-consulting-48"/></defs><g id="background_consulting-48"><path class="cls-3_consulting-48 targetColor" d="M70.41,97.03c-25.44,29.62-36.41,68.84-43.8,107.18-7.62,39.66-12.17,79.86-13.62,120.22-.85,23.69.53,50.27,17.75,66.55,6.44,6.1,14.53,10.1,22.62,13.75,14.4,6.53,29.38,12.29,45.1,14.05,26.05,2.92,51.93-5.25,76.86-13.36,43.92-14.29,89.58-28.87,135.41-23.09,21.25,2.68,41.72,9.69,62.84,13.27,21.12,3.58,43.99,3.42,62.53-7.3,12.9-7.47,22.63-19.45,30.31-32.22,17.24-28.67,25.38-62.05,27.98-95.42,1.28-16.48,1.26-33.17-1.93-49.39-3.65-18.53-11.33-35.98-19.08-53.2-9.49-21.12-19.32-42.3-32.9-61.07-13.57-18.77-31.28-35.19-52.82-43.66-41.01-16.11-85.84-1.86-127.28,4.62-21.17,3.29-43.07,5.42-64.2.65-10.17-2.29-18.33-7.01-28.76-7.38-11-.39-22.79,2.19-33.29,5.22-24.51,7.07-47.07,21.17-63.72,40.57Z" style="fill: rgb(51, 154, 255);"/><ellipse class="cls-3_consulting-48 targetColor" cx="252.27" cy="348.82" rx="197.46" ry="22.75" style="fill: rgb(51, 154, 255);"/></g><g id="computer_consulting-48"><rect class="cls-27_consulting-48 targetColor" x="211.92" y="200.98" width="34.82" height="28.44" style="fill: rgb(51, 154, 255);"/><rect class="cls-2_consulting-48" x="211.92" y="200.98" width="34.82" height="28.44"/><rect class="cls-24_consulting-48" x="147.87" y="229.1" width="184.97" height="5.89"/><rect class="cls-22_consulting-48" x="147.87" y="232.53" width="184.97" height="2.46"/><rect class="cls-24_consulting-48" x="176.65" y="142.63" width="109.89" height="69.56" rx="10.5" ry="10.5"/><path class="cls-5_consulting-48 targetColor" d="M286.54,195.14v6.57c0,5.79-4.69,10.49-10.48,10.5h-88.91c-5.79-.02-10.47-4.73-10.46-10.52v-6.57l109.85.02Z" style="fill: rgb(51, 154, 255);"/></g><g id="bubble_consulting-48"><rect class="cls-24_consulting-48" x="263.67" y="89.88" width="117.09" height="40.72" rx="16.84" ry="16.84"/><polygon class="cls-24_consulting-48" points="335.02 144.05 324.46 129.06 335.02 129.06 335.02 144.05"/></g><g id="character_2_consulting-48"><path class="cls-27_consulting-48 targetColor" d="M399.4,278.38s20.31,65.51,18.1,67.12c-2.2,1.61-3.6-2.76-3.6-2.76l-20.48-60.88,5.98-3.47Z" style="fill: rgb(51, 154, 255);"/><path class="cls-27_consulting-48 targetColor" d="M355.74,285.94l-.19.47-23.14,59.37c-.35.92-.88,1.76-1.55,2.47-.53.64-1.48.73-2.12.2-.02-.02-.05-.04-.07-.06-2.09-1.71,19.65-62.64,19.65-62.64l7.42.2Z" style="fill: rgb(51, 154, 255);"/><path class="cls-27_consulting-48 targetColor" d="M373.07,281.59s-.73,68.58-3.31,69.43-2.58-3.73-2.58-3.73l-.88-64.24,6.76-1.46Z" style="fill: rgb(51, 154, 255);"/><path class="cls-7_consulting-48" d="M395.77,279.18s22.11,63.51,19.89,65.09-1.76-1.53-1.76-1.53l-20.48-60.88,2.35-2.67Z"/><path class="cls-8_consulting-48" d="M355.55,286.42l-23.14,59.37c-.35.92-.88,1.76-1.55,2.47.08-6.8,19.78-61.95,19.78-61.95l4.92.11Z"/><path class="cls-6_consulting-48" d="M373.07,281.59s-.73,68.58-3.31,69.43-.99-5.17-.99-5.17l.91-63.51,3.38-.75Z"/><path class="cls-17_consulting-48" d="M417.98,262.71c-4.85,11.18-15.75,18.89-27.44,22.35-9.11,2.69-18.71,3.11-28.26,2.56-2.67-.14-5.35-.34-8.03-.61-4.67-.47-9.41-1.08-13.78-2.79-4.37-1.71-8.45-4.66-10.67-8.83-1.35-2.74-2.1-5.75-2.19-8.8-.46-7.84,2.02-16.18,8.03-21.17,4.72-3.94,10.87-5.48,15.76-9.13,5.48-4.11,11.1-7.78,16.89-11.48,5.8-3.69,11.68-7.42,18.16-9.78s13.71-3.23,20.27-1.15c2.27.73,5.77,2.49,9.19,10.87,4.97,11.98,7.22,26.06,2.07,37.95Z"/><path class="cls-23_consulting-48" d="M382.08,183.32c-2.33,3.19-9.42,6.27-9.42,6.27-.82-3.15.93-4.32.93-4.32,1.82.16,4.2-4.27,3.42-5.67-.96-1.74-2.3-1.12-3.19-.37-1.86-1.45-3.02-3.6-3.22-5.95-.12-1.37,2.24-5.22-2.28-6.89-4.52-1.67-10.88,0-10.88,0,0,0-1.64-4.21,3.65-6.23,11.88-4.54,26,3.2,25.21,16.51-.21,3.61-.45,7.7,2.04,10.31,1.37,1.42,3.29,2.1,5.11,2.82,2.37.92,4.78,2.04,6.45,3.97s2.37,4.9,1.05,7.08c-.63,1.04-1.72,2.04-1.46,3.23.18.53.5,1.01.91,1.39,2.73,2.93,4.48,6.63,5.02,10.59.51,3.99-.75,8.01-3.45,11-3.65,3.83-9.49,4.83-14.72,4.04-4.23-.64-8.42-2.39-11.3-5.57-4.38-4.84-4.93-11.87-6.15-18.25-.07-.79-.39-1.53-.91-2.13-1.28-1.2-3.33-.23-5.07-.27-3.02-.07-5.04-3.37-5.11-6.38s1.15-5.84,1.76-8.83.42-6.43-1.86-8.4c-.85-.73-1.92-1.19-2.84-1.85-4.07-2.92-3.83-9.66-.36-13.28,3.47-3.62,9.05-4.51,13.99-3.65,3.97.73,12.94,2.92,14.78,6.57,1.84,3.65.25,11.03-2.1,14.23Z"/><path class="cls-26_consulting-48" d="M351.85,202.34l-19.15,19.71-25.42-13.4c-3.14-1.93-6.78-2.91-10.46-2.8-.38,0-.89.22-.8.58s.51.39.58.73-.34.54-.68.61l-6.07,1.35c-.89.2-1.97.62-2.02,1.53.05.62.39,1.17.91,1.5,4.01,3.34,9.63,4.07,14.83,3.58.5-.07,1.01-.07,1.52,0,.49.12.97.32,1.4.59,1.96,1.09,3.87,2.28,5.7,3.57,4.99,3.5,9.45,7.72,14.51,11.12,1.02.8,2.23,1.32,3.52,1.5,1.14-.02,2.27-.29,3.29-.8,7.3-2.92,14.78-6.04,20.34-11.6.49-.44.89-.98,1.18-1.58.2-.6.3-1.24.28-1.88.07-2.67.04-5.35-.1-8.03.02-1.22-.25-2.43-.78-3.53-.58-1.11-1.84-1.7-3.07-1.42"/><path class="cls-19_consulting-48" d="M339.74,223.13c-.62.48-1.3.88-2.01,1.21-1.55.65-3.29.53-4.97.48-2.54-.06-5.09.09-7.61.45-.63.04-1.24.24-1.78.56-.54.35-.79,1.01-.61,1.64.17.33.42.61.73.81,2.04,1.64,4.23,3.35,6.83,3.65,3.11.41,6.09-1.24,8.76-2.83l5.59-3.22c.84-.41,1.57-1.01,2.13-1.74.78-1.2.96-4.57-.93-4.92-1.55-.31-4.92,3.02-6.12,3.91Z"/><path class="cls-24_consulting-48" d="M354.67,197.41c.37-.12.75-.2,1.13-.23,1.93-.18,4.12.29,6.05.38,2.72.12,5.45.18,8.18.09,5.21-.15,13.75-.73,18.4,4.96,5.77,7.03.8,19.39-3.23,28.66-1.46,3.46-2.23,14.67-1.46,22.86,0,0-16.21,5.67-30.46,2.72l-4.89-18.35c-.27-.95-1.12-1.96-1.53-2.86-1.13-2.45-1.95-5.04-2.45-7.69-.58-3.07-1.46-8.17-.15-11.12.2-.45.88-.8.93-1.28.08-.66-.79-1.75-1.06-2.34-.89-1.91-1.61-3.9-2.14-5.94-.12-.31-.13-.66-.04-.98.13-.25.32-.47.55-.63,2.14-1.72,4.29-3.43,6.57-4.98,1.55-1.07,3.62-2.66,5.59-3.26Z"/><path class="cls-26_consulting-48" d="M372.72,184.43c-1.08,3.44-5.6,9.49-10.77,8.1,1.24,2.24,1.08,5-.41,7.09,0,0,1.68,4.29,13.02-2.05,0,0-3.07-.26-2.23-6.57.25-2.16,1.02-4.24,2.23-6.04-.44.43-1.14.42-1.57-.02-.13-.14-.23-.31-.28-.49Z"/><path class="cls-19_consulting-48" d="M372.2,186.16s-2.49,10.58-6.71,10.13c-4.22-.45-3.95-6.88-3.95-6.88l10.66-3.25Z"/><path class="cls-23_consulting-48" d="M394.24,206.45c.29-3.25-.68-6.48-2.7-9.03-2.37-2.76-5.99-4-9.37-5.34-1.46-.57-2.98-1.31-3.58-2.72-.4-.93-.31-2-.47-3.01s-.73-2.1-1.77-2.24c-.63-.04-1.26.18-1.73.61-2.15,1.65-2.83,4.68-2.34,7.34s1.96,5.02,3.47,7.26c1.52,2.23,3.12,4.47,3.99,7.03.65,1.95.84,4.02,1.31,6.02,1.05,4.38,4.74,7.01,9.07,4.51,2.99-1.73,3.92-7.35,4.13-10.42Z"/><path class="cls-23_consulting-48" d="M361.05,160.18s-6.88.4-8.92,10.37c-2.04,9.96,7.89,9.8,7.89,9.8l6.04-17.29-5.01-2.88Z"/><path class="cls-26_consulting-48" d="M365.63,193.03c-6.23.52-10.01-5.29-10.71-12.88-.07-.83-.1-1.68-.1-2.55-.01-2.48.27-4.94.85-7.35,2.72-11.68,19.32-6.99,19.32-6.99,13,5.83,1.47,28.87-9.35,29.77Z"/><path class="cls-23_consulting-48" d="M361.18,163c1.62,5.63,3.79,13.63,9.29,16.72.63.35,1.79.94,2.54.79s.73-.84,1.42-1.46c.44-.44,1.1-.55,1.66-.28.45.34.71.89.68,1.46,0,1.4-.73,2.71-1.93,3.44-.54.25-1.06.55-1.55.89-.55.54-.87,1.26-.92,2.03-.19,2.11.86,4.14,2.69,5.2.11.07.24.11.37.12.16-.03.3-.12.41-.24l2.46-2.25c1.17-.99,2.23-2.12,3.15-3.35,1.13-1.67,1.74-3.64,1.75-5.66,0-.91-.37-1.83-.35-2.71.15-1.15.46-2.28.91-3.36.55-1.39.83-2.88.83-4.38-.2-2.92-2.63-5.24-5.25-6.57-4.15-2.05-8.94-2.28-13.56-2.34-.92-.06-1.85.07-2.72.37-.8.45-1.12,1.32-1.86,1.59Z"/><path class="cls-26_consulting-48" d="M372.2,233.92l4.75,10.44s10.22-12.75,14.11-26.51c3.4-12.16-2.63-15.22-2.63-15.22-4.61-1.69-7.75,4.88-12.28,18.17-2.5,7.28-3.96,13.12-3.96,13.12Z"/><path class="cls-26_consulting-48" d="M376.96,244.33s.18-8.49-3.96-10.18c-4.14-1.69-33.15-6.23-33.15-6.23l-2.72,3.14s28.49,16.43,39.83,13.27Z"/><path class="cls-21_consulting-48" d="M329.94,266.77l.35-.37c-1.41,1.58-2.35,2.72-2.64,3.07.72-.94,1.48-1.85,2.29-2.71Z"/><path class="cls-27_consulting-48 targetColor" d="M385.48,268.43c-.85,4.94-4.22,9.19-8.33,12.07s-8.91,4.58-13.72,6.04c-2.84.87-4.61,4.51-7.17,6.02-.93.46-1.74,1.13-2.36,1.97-.93,1.51-.47,3.47,0,5.18,2.18,7.56,4.37,15.11,6.57,22.67,1.09,3.75,2.19,7.73,1.15,11.51-1.04,3.77-5.01,7.02-8.71,5.77-7.24-11.68-14.47-23.36-21.71-35.04-10.86-17.52-3.57-14.1,3.92-26.1,3.23-5.17,28.57-26.5,28.57-26.5,6.48-.94,13.06-1.38,19.32-1.74.74,6.09,3.53,12.1,2.47,18.15Z" style="fill: rgb(51, 154, 255);"/><path class="cls-27_consulting-48 targetColor" d="M363.71,252s-25.85,21.04-28.57,26.5c-7.58,15.24-3.92,26.1-3.92,26.1-6.33,10.18-12.65,20.35-18.98,30.53-4.38.09-10.29-1.1-10.51-5.49.03-1.24.32-2.46.86-3.57,4.77-11.88,9.54-23.76,14.3-35.63,2.83-7.07,5.75-14.28,10.28-20.34l.4-.53v-.04l.06-.07c.29-.35,1.23-1.46,2.64-3.07v-.04c4.11-4.59,12.13-12.81,19.55-16.06,0,0,8.61,2.37,13.8,1.74l.08-.02Z" style="fill: rgb(51, 154, 255);"/><path class="cls-12_consulting-48" d="M363.71,252s-25.85,21.04-28.57,26.5c-7.58,15.24-3.92,26.1-3.92,26.1-6.33,10.18-12.65,20.35-18.98,30.53-4.38.09-10.29-1.1-10.51-5.49.03-1.24.32-2.46.86-3.57,4.77-11.88,9.54-23.76,14.3-35.63,2.83-7.07,5.75-14.28,10.28-20.34l.4-.53v-.04l.06-.07c.29-.35,1.23-1.46,2.64-3.07v-.04c4.11-4.59,12.13-12.81,19.55-16.06,0,0,8.61,2.37,13.8,1.74l.08-.02Z"/><path class="cls-25_consulting-48" d="M350.43,346.34c-1.69,1.56-3.95,3.12-3.87,5.43,0,.23.06.45.18.64.24.23.55.36.88.37,5.21.58,10.06-2.6,14.11-5.94,1.02-.84,2.09-1.8,2.33-3.1s-.45-2.61-1.04-3.8c-.96-1.95-1.74-3.97-2.34-6.06.18.62-2.44,2.83-2.88,3.21-.93.82-2.31,1.41-3.04,2.4s-.88,2.19-1.46,3.18c-.76,1.37-1.73,2.6-2.87,3.67Z"/><path class="cls-25_consulting-48" d="M296.63,336.57c-1.83.65-3.96,1-5.11,2.56-.23.28-.36.62-.39.97,0,.96,1.12,1.46,2.06,1.68,3.76.77,7.64.23,11.44-.32,1.23.02,2.28-.91,2.39-2.14l1.5-4.61c.06-.13.08-.29.05-.43-.06-.14-.17-.26-.31-.34-1.03-.72-2.12-1.34-3.26-1.85-1.54-.73-1.64-.66-2.67.55-1.53,1.78-3.49,3.14-5.7,3.93Z"/><path class="cls-26_consulting-48" d="M336.74,227.34c-3-.47-6.37-.86-8.8.96-1.15.99-2.09,2.2-2.77,3.56-.47.81-.96,1.78-.57,2.63s1.34,1.11,2.19,1.32c2.77.67,5.75,1.3,8.4.26,1.96-.73,3.54-2.39,5.59-2.88.35-.05.68-.16.99-.34.28-.23.48-.55.56-.91,1.23-4.12-2.84-4.22-5.58-4.61Z"/><path class="cls-27_consulting-48 targetColor" d="M304.6,344.96c-.1.21-.27.4-.47.53-.3.11-.63.11-.93,0-1.69-.23-3.41-.29-5.11-.18-3.5-.06-6.98-.37-10.43-.95-1.5-.22-3.18-.53-4.04-1.77-.11-.14-.18-.31-.2-.49,0-.27.12-.53.3-.73,1.51-1.81,3.5-3.17,5.74-3.91.83-.35,1.71-.54,2.61-.57.91-.02,1.78.37,2.38,1.06.62.79.73,1.92,1.41,2.63s1.85.8,2.87.73c1.19-.04,2.37-.18,3.53-.4.88-.17,2.19-.77,3.07-.55,2.05.56-.14,3.58-.72,4.61Z" style="fill: rgb(51, 154, 255);"/><path class="cls-27_consulting-48 targetColor" d="M365.38,346.41c.04.27,0,.55-.1.8-.22.3-.53.51-.88.61-1.76.86-3.44,1.9-4.99,3.1-3.33,2.16-6.82,4.07-10.43,5.7-1.56.73-3.35,1.51-4.96.89-.19-.06-.37-.18-.5-.33-.16-.26-.22-.57-.18-.88.27-2.68,1.28-5.22,2.92-7.36.56-.86,1.28-1.6,2.12-2.19.85-.59,1.92-.78,2.92-.51,1.09.35,1.89,1.37,3.01,1.59s2.26-.42,3.2-1.1c1.1-.8,2.13-1.68,3.1-2.64.73-.73,1.57-2.12,2.56-2.47,2.26-.81,2.14,3.42,2.22,4.78Z" style="fill: rgb(51, 154, 255);"/><path class="cls-24_consulting-48" d="M392.92,206.77c.72,2.23,1.21,4.53,1.46,6.85l.45,3.14c.16.65.12,1.33-.1,1.96-.52,1.1-2.61.65-3.65.82-1.85.3-3.7.59-5.56.88-3.71.57-7.42,1.11-11.13,1.64-.2-1.88-.15-3.79.14-5.66.34-1.78,1.11-3.45,1.55-5.21.36-1.46.49-2.92.86-4.38.78-3,2.57-5.64,5.07-7.48,3.91-2.85,9.64,4.06,10.83,7.17l.08.28Z"/><path class="cls-17_consulting-48" d="M417.98,262.71c-4.85,11.18-15.75,18.89-27.44,22.35-9.11,2.69-18.71,3.11-28.26,2.56,0-.65.38-1.04,1.18-1.08,9.15-.46,12.94-12.48,15.68-18.6,2.74-6.12,4.62-13.8,22.48-20.89,17.4-6.89,15.28-19.86,16.15-17.24,4.11,12.29,5.37,21.02.21,32.91Z"/><path class="cls-24_consulting-48" d="M419.23,263.22c-4.85,11.17-15.75,18.88-27.44,22.35-9.11,2.69-21.35,3.15-30.89,2.59,0-.64,1.77-1.58,2.56-1.62,9.15-.46,13.14-14.74,15.89-20.86,2.74-6.12,5.26-9.71,22.28-18.64,25.43-13.33,7.03-31.46,6.71-32.62,6.1,1.96,9.49,14.35,10.35,16.97,4.11,12.29,5.7,19.94.55,31.84Z"/><path class="cls-15_consulting-48 targetColor" d="M384.69,283.61c-7.73,1.97-15.91,2.04-23.44,4.71,2.39-.85,7.39.47,10.05.39,3.65-.11,7.29-.49,10.88-1.15,6.36-1.15,14.78-2.92,20.02-6.84-3.42-2.91-13.73,1.93-17.51,2.89Z" style="fill: rgb(51, 154, 255);"/><path class="cls-27_consulting-48 targetColor" d="M389.32,351.8c-.12.07-.25.13-.38.17-.24.06-.49.08-.73.04-2.71-.34-16-63.64-16-63.64l1.82-1.06c.13-.07.28-.15.42-.21,1.9-.8,4.09.09,4.89,1.99.02.05.04.09.05.14v.07c.08.19.13.39.17.59l10.45,57.97s.62,3.05-.69,3.94Z" style="fill: rgb(51, 154, 255);"/><path class="cls-13_consulting-48" d="M389.62,346.59s-.11,3.65-.3,5.21c-.12.73-.23,1.02-.38.17h0c-1.31-7.66-12.16-54.66-14.51-64.86,1.9-.8,4.09.09,4.89,1.99.02.05.04.09.05.14v.07l10.24,57.28Z"/></g><g id="character_1_consulting-48"><path class="cls-27_consulting-48 targetColor" d="M109.36,278.38s-20.27,65.51-18.08,67.12c2.19,1.61,3.59-2.76,3.59-2.76l20.5-60.88-6.01-3.47Z" style="fill: rgb(51, 154, 255);"/><path class="cls-27_consulting-48 targetColor" d="M153.01,285.94l.19.47,23.14,59.37c.35.92.88,1.76,1.55,2.47.53.64,1.48.73,2.12.2.02-.02.05-.04.07-.06,2.12-1.71-19.62-62.61-19.62-62.61l-7.45.17Z" style="fill: rgb(51, 154, 255);"/><path class="cls-27_consulting-48 targetColor" d="M135.73,281.59s.73,68.58,3.3,69.43,2.61-3.73,2.61-3.73l.88-64.24-6.79-1.46Z" style="fill: rgb(51, 154, 255);"/><path class="cls-11_consulting-48" d="M112.99,279.18s-22.11,63.51-19.89,65.09c2.21,1.58,1.76-1.53,1.76-1.53l20.51-60.88-2.38-2.68Z"/><path class="cls-9_consulting-48" d="M153.2,286.42l23.14,59.37c.35.92.88,1.76,1.55,2.47-.07-6.8-19.78-61.95-19.78-61.95l-4.92.11Z"/><path class="cls-10_consulting-48" d="M135.73,281.59s.73,68.58,3.3,69.43.99-5.17.99-5.17l-.91-63.51-3.37-.75Z"/><path class="cls-17_consulting-48" d="M90.78,262.71c4.85,11.18,15.75,18.89,27.44,22.35,9.11,2.69,18.71,3.11,28.26,2.56,2.67-.14,5.34-.35,7.99-.61,4.67-.47,9.41-1.07,13.78-2.78,4.37-1.71,8.45-4.66,10.67-8.83,1.36-2.74,2.1-5.75,2.19-8.8.46-7.84-2.02-16.18-8.03-21.17-4.72-3.94-10.87-5.48-15.76-9.13-5.48-4.11-11.1-7.78-16.89-11.48-5.8-3.69-11.68-7.42-18.16-9.78s-13.71-3.23-20.27-1.15c-2.27.73-5.77,2.49-9.19,10.87-4.93,11.98-7.18,26.06-2.03,37.95Z"/><path class="cls-24_consulting-48" d="M108.15,222.02c.87,1.87,1.55,3.83,2.03,5.84.44,2.45,1.19,4.86,1.62,7.34.87,4.96,1.28,9.99,1.23,15.03,0,1.99,0,4.24,1.42,5.62.96.93,2.34,1.23,3.65,1.46,2.58.52,4.91,1.54,7.48,1.98,2.81.41,5.65.58,8.48.51,8.37,0,23.93-.93,23.41-12.6-.5-13.17-1.66-26.31-3.47-39.36-.63-4.42-.73-9.53-2.1-13.78-1.12-3.58-5.3-3.61-8.76-3.25l-.66.07c-.67.07-1.34.15-1.99.23-4.61.48-9.24.62-13.87.41-5.21-.16-13.54-.68-18.66,4.23-.36.34-.69.69-1,1.07-5.09,6.21-2.36,16.29,1.18,25.2Z"/><path class="cls-1_consulting-48" d="M127.55,220.72c.45,5.84-1.21,12.07,1.85,16.95.14.27.36.5.64.64.44.09.9.04,1.31-.15,1.84-.37,3.63.83,4,2.67.03.14.05.27.06.41,1.47-1.11,2.39-2.8,2.53-4.64.07-1.01,0-2.25.85-2.8,1.1-.73,2.51.56,2.74,1.85s-.13,2.64.23,3.9c.47,1.64,2.11,2.72,3.77,3.07,1.69.25,3.42.25,5.11,0,1.23-.18,2.49-.05,3.65.39,1.12.53,1.99,1.81,1.65,3.01-.41,1.42-2.13,1.92-3.59,2.19l-20.05,3.74-10.32,1.93c-2.26.42-6.24,2.41-6.31-.93-.11-4.99-.89-9.94-2.32-14.72-.58-1.93-.64-3.9-1.2-5.77-.69-2.27-1.95-4.45-2.72-6.72-1.56-4.56-2.61-9.29-3.13-14.08-.37-3.37-.13-7.44,2.76-9.2,2.09-1.26,4.9-.73,6.86.73,2.39,1.77,3.5,4.56,5.71,6.43,2.57,2.19,4.57,4.66,5.43,7.99.25,1.02.42,2.06.49,3.11Z"/><path class="cls-27_consulting-48 targetColor" d="M137.77,199.91c-.17.22-.29.47-.37.73-.02.29.04.57.17.83,2.82,7.07,4.58,14.5,6.34,21.9,1.55,6.51,3.1,13.07,3.42,19.76.05.49.01.98-.11,1.46-.51,1.65-2.66,2.19-3.61,3.61l-3.13-3.58c-.2-.21-.37-.46-.48-.73-.09-.38-.09-.77,0-1.15,1.06-7.15-.12-14.44-1.79-21.48-1.46-6.04-3.26-12.1-3.15-18.31,0-.73,0-1.62-.56-2.11-.32-.22-.67-.38-1.04-.5-1.74-.85-2.46-2.95-1.61-4.69,0-.02.02-.04.03-.06.66-.01,1.32-.18,1.91-.49.6-.31,1.28-.4,1.93-.26,1.45.5,2.88,3.69,2.05,5.04Z" style="fill: rgb(51, 154, 255);"/><path class="cls-24_consulting-48" d="M107.98,195.76c5.11-4.91,13.45-4.38,18.66-4.23,4.63.21,9.26.07,13.87-.41.65-.08,1.32-.17,1.99-.23-2.75-1.12-6.66-.37-9.59-.28-4.45.15-8.89.42-13.34.81-4.2.39-8.86,1.11-11.59,4.34Z"/><path class="cls-20_consulting-48" d="M123.76,177.4c1.17,3.65,5.88,7.17,11.4,5.65,0,0-2.19,6.57.55,10.58,0,0-1.79,4.58-13.92-2.19,0,0,3.28-.27,2.39-7-.26-2.31-1.08-4.53-2.39-6.46.47.45,1.22.44,1.67-.03.15-.15.25-.34.3-.55Z"/><path class="cls-25_consulting-48" d="M129.71,185.89c6.4,1.88,11.61-3.39,13.98-11.18.26-.85.47-1.74.66-2.64.55-2.59.8-5.23.73-7.88-.37-12.77-18.76-11.47-18.76-11.47-14.85,3.31-7.74,29.9,3.39,33.17Z"/><path class="cls-21_consulting-48" d="M169.48,265.38l-.38-.39c1.5,1.69,2.52,2.92,2.83,3.29-.76-.99-1.58-1.96-2.45-2.89Z"/><path class="cls-16_consulting-48" d="M114.72,153.61c1.11-2.31,2.95-4.18,5.25-5.32,2.1-1.11,5.17-.89,6.89-2.62.93-.93,1.11-2.34,1.64-3.53.55-1.2,1.46-2.2,2.61-2.85.75-.43,1.59-.68,2.45-.73,2.66-.12,5.07,1.93,6.1,4.38.73-1.2,2.24-1.67,3.65-1.64,3.24.07,6.21,2.36,7.55,5.31.55,1.16.8,2.43.73,3.71-.07,1.29-.63,2.5-1.56,3.39-.2.21-.45.34-.73.39-.28.05-.55-.11-.65-.38-.92,1.94-2.06,3.76-3.41,5.43-.45.62-1.05,1.12-1.74,1.46-.69.25-1.43.29-2.15.12-.98-.18-1.91-.54-2.76-1.07-.15-.12-.34-.18-.53-.16-.19.05-.29.24-.39.42-.53,1.04-1.47,1.81-2.59,2.12-.97.13-1.96.09-2.92-.11-1.32-.16-2.65-.16-3.96,0-.8.07-1.58.32-2.28.73-.85.64-1.36,1.65-1.36,2.72,0,.42.41,3.85-.09,3.93-.81.14-.97-1.2-1.68-1.62s-1.39.12-1.76.73c-.61,1.08-.48,2.42.33,3.36.25.21.44.47.55.77.04.3,0,.61-.15.88l-1.25,3.14c-1.67-3.95-3.68-7.75-5.99-11.36-.99-1.46-2.13-3.09-1.69-4.77s2.26-2.92,1.88-4.56c-.07-.31-.23-.61-.27-.93-.03-.46.06-.93.28-1.34Z"/><path class="cls-17_consulting-48" d="M125.26,250.52s7.79,19.44,14.04,21.48c6.25,2.04,45.04,13.75,45.04,13.75l16.49,55.88,4.26-2.61c1.61-.99,5.47-2.42,6.45-4.04,1.3-2.12-.66-7.7-1.03-10.12l-1.69-10.95c-2.27-14.8-4.54-29.61-6.83-44.42,0-1.5-.94-2.84-2.35-3.35-7.63-4.09-15.47-7.77-23.48-11.05-3.93-1.61-7.89-3.1-11.88-4.51-.79-.28-6.64-3.47-6.8-3.35-.05.02-4.2,3.14-32.22,3.3Z"/><path class="cls-18_consulting-48" d="M196.2,343.67c-1.8-3.97-1.95-8.45-2.47-12.77-.39-3.26-1.01-6.48-1.63-9.69l-8.48-44.3c-.07-1.93-1.36-3.61-3.2-4.18-13.62-6.65-27.01-13.63-40.52-20.54,0,0-14.6-5.3-25.44,2.1,0,0-1.46,17.73,4.79,19.77,13.81,4.5,27.72,8.61,41.75,12.34.66.13,1.28.41,1.83.8.61.61,1.04,1.39,1.23,2.23,5.11,15.56,10.22,31.12,14.89,46.8.55,1.85,1.1,3.7,1.64,5.54.42,1.41.73,5.11,1.76,6.09,1.37,1.38,3.17,0,4.99-.73l9.96-4.02-32.21-78.03-4.69-2.41"/><path class="cls-17_consulting-48" d="M218.64,336.17c1.65.04,3.29.2,4.92.49,1.52.17,2.96.75,4.17,1.69.68.6,1.14,1.41,1.29,2.31.14.9-.15,1.82-.77,2.49-.59.51-1.28.88-2.02,1.09-1.74.61-3.48,1.22-5.22,1.82-3.73,1.28-7.52,2.58-11.46,2.8-.23.03-.47,0-.69-.07-.17-.09-.32-.2-.45-.34-2.37-2.31-4.6-5.03-5.17-8.29-.03-.11-.03-.23,0-.34.06-.12.16-.22.28-.29,2.38-1.61,5-2.84,7.75-3.65,2.5-.72,4.85.26,7.37.31Z"/><path class="cls-17_consulting-48" d="M199.76,343.66c1.65.04,3.29.2,4.92.49,1.52.17,2.96.75,4.17,1.69.68.6,1.14,1.41,1.29,2.31.14.9-.15,1.82-.77,2.49-.59.51-1.28.88-2.02,1.09-1.74.61-3.48,1.22-5.22,1.82-3.73,1.28-7.52,2.58-11.46,2.8-.25.04-.5.01-.73-.07-.17-.09-.32-.2-.45-.34-2.37-2.31-4.6-5.03-5.17-8.29-.03-.11-.03-.23,0-.34.06-.12.16-.22.28-.29,2.38-1.61,5-2.84,7.75-3.65,2.53-.72,4.85.25,7.41.31Z"/><path class="cls-17_consulting-48" d="M90.78,262.71c4.85,11.18,15.75,18.89,27.44,22.35,9.11,2.69,18.71,3.11,28.26,2.56,0-.65-.38-1.04-1.18-1.08-9.15-.46-12.94-12.48-15.68-18.6s-4.62-13.8-22.48-20.89c-17.4-6.89-15.28-19.86-16.15-17.24-4.1,12.29-5.37,21.02-.21,32.91Z"/><path class="cls-24_consulting-48" d="M89.53,263.22c4.85,11.17,15.75,18.88,27.44,22.35,9.11,2.69,21.35,3.15,30.89,2.59,0-.64-1.77-1.58-2.56-1.62-9.15-.46-13.14-14.74-15.89-20.86-2.74-6.12-5.29-9.71-22.28-18.62-25.43-13.33-7.03-31.46-6.71-32.62-6.1,1.96-9.49,14.35-10.35,16.97-4.11,12.28-5.7,19.92-.55,31.82Z"/><path class="cls-15_consulting-48 targetColor" d="M124.07,283.61c7.73,1.97,15.91,2.04,23.44,4.71-2.39-.85-7.39.47-10.05.39-3.65-.11-7.29-.49-10.88-1.15-6.37-1.15-14.78-2.92-20.03-6.84,3.42-2.91,13.73,1.93,17.51,2.89Z" style="fill: rgb(51, 154, 255);"/><path class="cls-27_consulting-48 targetColor" d="M119.43,351.8c.12.07.25.13.38.17.24.06.49.08.73.04,2.71-.34,16-63.64,16-63.64l-1.82-1.06c-.13-.07-.28-.15-.42-.21-1.9-.8-4.09.09-4.89,1.99-.02.05-.04.09-.05.14v.07c-.08.19-.14.39-.18.59l-10.45,57.97s-.61,3.05.69,3.94Z" style="fill: rgb(51, 154, 255);"/><path class="cls-4_consulting-48" d="M119.13,346.59s.11,3.65.3,5.21c.12.73.23,1.02.38.17h0c1.31-7.66,12.16-54.66,14.51-64.86-1.9-.8-4.09.09-4.89,1.99-.02.05-.04.09-.05.14v.07l-10.24,57.28Z"/><path class="cls-24_consulting-48" d="M134.01,257.53c-.16.96-.66,1.82-1.42,2.43-.81.67-1.78,1.11-2.82,1.28-1.98.31-4-.23-5.91-.83-6.13-1.9-12.08-4.31-17.81-7.2-1.88-.95-3.82-2.01-4.95-3.8-1.25-2-1.26-4.52-1.2-6.87.28-9.85,1.13-19.67,2.55-29.41.61-4.31.56-10.99,3.15-15.11,1.29-2.2,3.62-3.58,6.16-3.65,4.1-.25,7.5,3.65,8.25,7.68.75,4.03-.42,8.16-1.46,12.13-1.46,5.72-2.73,11.53-3.65,17.37-.43,2.6-.77,5.42.48,7.75.59,1.01,1.33,1.92,2.19,2.7,3.47,3.38,7.3,6.38,11.41,8.94,2.49,1.57,5.45,3.69,5.02,6.58Z"/><path class="cls-24_consulting-48" d="M191.84,223.42c-.41,2.08-1.71,3.87-3.56,4.89-1.83,1-3.8,1.72-5.84,2.15l-8.38,2.19c-4.38,1.15-9.66,2.07-12.91-1.1-1.18-1.08-1.73-2.69-1.46-4.26.09-.39.26-.76.5-1.09.62-.68,1.36-1.23,2.19-1.63,2.42-1.43,4.52-3.34,6.18-5.6-4.96-1.85-10.13-3.75-14.29-6.96-.77-.58-1.51-1.22-2.19-1.9-3.05-3.08-5.13-6.99-5.96-11.24-.37-1.78-.99-4.76-.34-6.53.88-2.42,2.55-1.3,4.91-.62,9.05,2.6,17.41,7.23,24.89,12.88,4.31,3.3,8.39,6.89,12.2,10.75,2.2,2.2,4.48,4.96,4.04,8.07Z"/><path class="cls-14_consulting-48" d="M171.92,221.75c-2.92,2.02-5.93,3.97-8.96,5.84-.88.55-2.11,1.08-2.86.35-.21-.19-.34-.45-.39-.73.09-.39.26-.76.5-1.09.62-.68,1.36-1.23,2.19-1.63,2.42-1.43,4.52-3.34,6.18-5.6-4.98-1.77-10.15-3.66-14.3-6.88v-.61c0-.73-.15-6.04-.57-6.3l18.66,11.55c.73.34,1.31.92,1.65,1.65.47,1.35-.88,2.61-2.1,3.45Z"/><path class="cls-25_consulting-48" d="M153.84,232.61c-.53,1.37-.82,2.82-.84,4.29-.21,1.99.11,4.01.93,5.84.92,1.77,2.83,3.15,4.81,2.92,1.37-.2,2.59-1.01,3.31-2.19.71-1.18,1.09-2.53,1.1-3.91.91-.23,1.42-1.21,1.64-2.13.12-.94.41-1.84.86-2.67.55-.78,1.51-1.22,1.98-2.06.39-.81.36-1.75-.08-2.53-1.2-2.31-4.94-4.31-7.4-3.24s-5.18,3.08-6.32,5.69Z"/><path class="cls-25_consulting-48" d="M130.3,259.72c1.54,2.29,4.8,2.6,7.53,2.19,2.79-.4,5.48-1.29,7.96-2.63.66-.27,1.2-.77,1.52-1.41.14-.45.14-.93,0-1.37-.45-1.51-1.51-2.76-2.92-3.46-1.4-.69-2.88-1.18-4.42-1.46-2.47-.56-5.11-1.12-7.5-.29-2.39.83-2.83.73-3.1,3.12-.14,1.74-.07,3.84.93,5.31Z"/><path class="cls-24_consulting-48" d="M122.82,188.39l4.96,2.57c1.75.81,3.39,1.84,4.88,3.07-.9,2.01-1.49,4.14-1.74,6.33-1.3-1.62-2.82-3.07-4.5-4.29-1.57-1.04-3.39-1.68-4.86-2.87-1.73-1.4.39-3.37,1.28-4.8Z"/><path class="cls-24_consulting-48" d="M138.37,193.27l2.31,3.08c.16.18.27.39.32.62-1.78-.84-3.66-1.45-5.59-1.83-.21,0-.41-.11-.55-.28-.07-.15-.08-.33-.04-.49.14-1.16-.05-2.33-.56-3.38-.21-.33-.35-.7-.4-1.08-.09-1.71,1.72.09,2.15.5.85.89,1.64,1.84,2.36,2.85Z"/><path class="cls-1_consulting-48" d="M132.59,259.96c-.81.67-1.78,1.11-2.82,1.28-1.98.31-4-.23-5.91-.83-6.13-1.9-12.08-4.31-17.81-7.2-1.88-.95-3.82-2.01-4.95-3.8-1.25-2-1.26-4.52-1.2-6.87.28-9.85,1.13-19.67,2.55-29.41.61-4.31.56-10.99,3.15-15.11.76.22,1.51.49,2.23.8.99.33,1.84.99,2.42,1.86.63,1.15.37,2.58.07,3.88-2.72,12.4-4.6,24.98-5.61,37.63-.28,1.21.23,2.46,1.26,3.15,2.49,2.25,5.14,4.3,7.94,6.15,4.38,2.92,9.69,6.26,14.91,7.23,1.48.28,2.69.3,3.78,1.23Z"/></g></svg>