<svg id="_0490_cpu" xmlns="http://www.w3.org/2000/svg" xmlns:xlink="http://www.w3.org/1999/xlink" viewBox="0 0 500 500" data-imageid="cpu-59" imageName="CPU" class="illustrations_image" style="width: 177px;"><defs><style>.cls-1_cpu-59{fill:#020202;opacity:.1;}.cls-1_cpu-59,.cls-2_cpu-59,.cls-3_cpu-59,.cls-4_cpu-59,.cls-5_cpu-59,.cls-6_cpu-59,.cls-7_cpu-59,.cls-8_cpu-59{stroke-width:0px;}.cls-1_cpu-59,.cls-3_cpu-59{isolation:isolate;}.cls-2_cpu-59{fill:url(#linear-gradient);}.cls-3_cpu-59{opacity:.18;}.cls-3_cpu-59,.cls-8_cpu-59{fill:#68e1fd;}.cls-9_cpu-59{opacity:.57;}.cls-4_cpu-59{fill:#473f47;}.cls-5_cpu-59{fill:#e0a194;}.cls-6_cpu-59{fill:#fff;}.cls-7_cpu-59{fill:#ffbbab;}</style><linearGradient id="linear-gradient-cpu-59" x1="803.92" y1="1951.98" x2="701.52" y2="2029.07" gradientTransform="translate(-509.94 2277.75) scale(1 -1)" gradientUnits="userSpaceOnUse"><stop offset="0" stop-color="#231f20"/><stop offset=".13" stop-color="#231f20" stop-opacity=".69"/><stop offset=".25" stop-color="#231f20" stop-opacity=".32"/><stop offset="1" stop-color="#231f20" stop-opacity="0"/></linearGradient></defs><g id="background_cpu-59"><path class="cls-3_cpu-59 targetColor" d="M156.41,61.75c-43.73,28.24-73.33,73.32-101.65,117.05-11.55,17.85-23.16,35.8-31.7,55.27-8.74,19.94-14.12,41.25-17.21,62.81-4.61,32.16-2.17,69.5,22.68,90.45,13.04,10.99,30.27,15.58,47.05,18.57,66.71,12.02,135.45,4.65,202.78,12.46,36.84,4.28,73.48,13.12,110.52,11.18,37.04-1.95,76.11-17.18,94.54-49.32,21.51-37.55,8.85-85.42-10.93-123.9-19.78-38.48-46.54-74.81-53.51-117.52-2.87-17.54-2.45-36.26-11.12-51.76-9.7-17.35-28.81-27.08-47.47-33.94-63.95-23.6-144.14-30.03-203.97,8.66Z" style="fill: rgb(51, 154, 255);"/></g><g id="cpu_cpu-59"><path class="cls-3_cpu-59 targetColor" d="M66.46,213.01c4.95,4.96,11.18,8.4,17.31,11.76l29.85,16.42c.94.61,2.01.99,3.13,1.12,1.21-.06,2.38-.45,3.4-1.1,16.15-8.53,31.65-18.27,46.35-29.11-3.4-3.02-7.06-6.18-11.56-6.92-2.47-.26-4.97-.16-7.41.3-18.09,2.43-36.38,3.1-54.6,2.02-2.89-.13-5.76-.42-8.62-.86-2.19-.38-5.39-1.97-7.58-1.57-1.73.32-9.72,8.49-10.27,7.94Z" style="fill: rgb(51, 154, 255);"/><path class="cls-3_cpu-59 targetColor" d="M167.3,303.8c8.16,8.18,18.44,13.85,28.55,19.47l49.32,27.08c1.56,1.02,3.34,1.65,5.19,1.86,2-.12,3.94-.75,5.63-1.83,26.64-14.09,52.2-30.14,76.46-48.02-5.61-5-11.68-10.2-19.07-11.41-4.09-.44-8.21-.28-12.25.48-29.85,4-60.02,5.12-90.09,3.35-4.76-.22-9.5-.7-14.21-1.43-3.61-.61-8.89-3.26-12.5-2.6-2.95.49-16.15,13.95-17.04,13.06Z" style="fill: rgb(51, 154, 255);"/><path class="cls-3_cpu-59 targetColor" d="M336.89,222.19c4.57,4.57,10.31,7.79,15.95,10.85l27.52,15.11c1.77,1.37,4.25,1.37,6.02,0,14.88-7.87,29.15-16.84,42.7-26.83-3.14-2.79-6.49-5.68-10.66-6.37-2.28-.24-4.59-.15-6.84.27-16.67,2.24-33.52,2.86-50.31,1.87-2.66-.12-5.3-.39-7.93-.79-2.01-.35-4.97-1.82-6.98-1.44-1.6.32-8.97,7.84-9.48,7.33Z" style="fill: rgb(51, 154, 255);"/><path class="cls-3_cpu-59 targetColor" d="M321.57,378.14c4.56,4.56,10.31,7.79,15.95,10.84l27.52,15.12c.87.56,1.85.92,2.88,1.04,1.12-.07,2.2-.42,3.14-1.03,14.88-7.87,29.15-16.83,42.7-26.82-3.14-2.79-6.49-5.7-10.66-6.37-2.28-.25-4.59-.16-6.84.27-16.67,2.23-33.52,2.86-50.31,1.87-2.66-.12-5.3-.39-7.93-.8-2.01-.34-4.97-1.82-6.98-1.44-1.6.25-9.02,7.76-9.48,7.32Z" style="fill: rgb(51, 154, 255);"/><path class="cls-3_cpu-59 targetColor" d="M51.13,375.92c4.57,4.57,10.31,7.79,15.96,10.85l27.5,15.11c1.77,1.37,4.25,1.37,6.02,0,14.88-7.87,29.15-16.84,42.7-26.83-3.14-2.79-6.49-5.68-10.66-6.37-2.28-.24-4.59-.15-6.84.27-16.67,2.24-33.52,2.86-50.31,1.87-2.66-.12-5.3-.39-7.93-.79-2.01-.35-4.96-1.82-6.98-1.44-1.6.32-8.97,7.84-9.47,7.33Z" style="fill: rgb(51, 154, 255);"/><polygon class="cls-8_cpu-59 targetColor" points="246.11 336.98 171.23 293.74 171.23 281.96 245.64 250.78 320.52 282.23 320.52 294.02 246.11 336.98" style="fill: rgb(51, 154, 255);"/><polygon class="cls-6_cpu-59" points="246.11 325.19 171.23 281.96 245.64 239 320.52 282.23 246.11 325.19"/><polygon class="cls-8_cpu-59 targetColor" points="246.06 314.56 189.64 281.98 245.69 249.61 302.12 282.19 246.06 314.56" style="fill: rgb(51, 154, 255);"/><polygon class="cls-6_cpu-59" points="246.02 309.25 198.84 282.01 245.73 254.93 292.91 282.18 246.02 309.25"/><path class="cls-6_cpu-59" d="M176.11,306.11h-.29c-.82-.16-1.35-.95-1.19-1.76,0,0,0,0,0,0,1.19-4.94,4.72-8.98,9.45-10.84.77-.32,1.65.05,1.97.82,0,0,0,0,0,.01.31.78-.07,1.66-.84,1.97-3.77,1.47-6.61,4.68-7.61,8.61-.16.7-.78,1.19-1.49,1.19Z"/><path class="cls-6_cpu-59" d="M188.04,313.46c-.09.01-.19.01-.29,0-.82-.16-1.36-.95-1.21-1.77,1.2-4.94,4.73-8.99,9.46-10.85.76-.34,1.66,0,2.01.76s0,1.66-.76,2.01c-.04.02-.08.03-.12.05-3.78,1.47-6.61,4.68-7.61,8.61-.16.7-.78,1.19-1.49,1.19Z"/><path class="cls-6_cpu-59" d="M200.02,320.82h-.29c-.82-.16-1.36-.95-1.21-1.77,1.2-4.94,4.73-8.98,9.45-10.85.77-.31,1.66.06,1.97.83.32.77-.05,1.65-.82,1.97,0,0,0,0-.01,0-3.78,1.47-6.61,4.68-7.61,8.61-.15.7-.77,1.21-1.49,1.21Z"/><path class="cls-6_cpu-59" d="M211.9,328.18h-.29c-.82-.16-1.36-.95-1.21-1.77,1.19-4.94,4.72-8.99,9.45-10.85.8-.25,1.65.19,1.91.99.22.71-.1,1.48-.76,1.81-3.78,1.47-6.62,4.68-7.62,8.61-.14.7-.76,1.21-1.48,1.21Z"/><path class="cls-6_cpu-59" d="M223.82,335.52c-.1.01-.2.01-.3,0-.82-.16-1.35-.95-1.19-1.76,0,0,0,0,0,0,1.19-4.94,4.72-8.99,9.45-10.85.78-.32,1.66.06,1.98.84.32.78-.06,1.66-.84,1.98-3.78,1.47-6.62,4.68-7.62,8.61-.15.7-.77,1.2-1.48,1.19Z"/><path class="cls-6_cpu-59" d="M314.94,306.1c.09.01.19.01.29,0,.82-.16,1.36-.95,1.21-1.77-1.2-4.94-4.73-8.99-9.46-10.84-.77-.31-1.65.06-1.97.84-.31.77.06,1.65.84,1.97,3.78,1.47,6.61,4.68,7.61,8.61.15.7.78,1.2,1.49,1.19Z"/><path class="cls-6_cpu-59" d="M303.01,313.46c.09.01.19.01.29,0,.82-.16,1.36-.95,1.21-1.77-1.19-4.94-4.72-8.99-9.45-10.85-.78-.31-1.66.07-1.97.84-.32.77.05,1.65.82,1.97,0,0,0,0,.01,0,3.78,1.47,6.62,4.68,7.62,8.61.15.7.77,1.19,1.48,1.19Z"/><path class="cls-6_cpu-59" d="M291.08,320.82h.29c.82-.15,1.36-.93,1.21-1.75,0,0,0,0,0-.01-1.19-4.96-4.73-9.02-9.49-10.88-.8-.25-1.65.19-1.91.99-.22.71.1,1.48.76,1.81,3.78,1.47,6.61,4.68,7.62,8.61.14.73.78,1.25,1.52,1.23Z"/><path class="cls-6_cpu-59" d="M279.19,328.18h.29c.81-.16,1.35-.95,1.19-1.77-1.19-4.94-4.72-8.99-9.45-10.85-.77-.32-1.65.05-1.97.82,0,0,0,0,0,.01-.31.77.06,1.66.83,1.97,3.78,1.47,6.62,4.68,7.62,8.61.15.7.77,1.21,1.49,1.21Z"/><path class="cls-6_cpu-59" d="M267.24,335.52c.09.01.19.01.29,0,.82-.16,1.35-.95,1.19-1.76,0,0,0,0,0,0-1.19-4.94-4.72-8.99-9.45-10.85-.79-.28-1.66.14-1.94.93-.26.74.09,1.57.81,1.89,3.77,1.47,6.61,4.68,7.61,8.61.15.7.78,1.2,1.49,1.19Z"/><polygon class="cls-8_cpu-59 targetColor" points="368.17 395.36 327.41 371.83 327.41 365.4 367.92 348.44 408.68 365.56 408.68 371.97 368.17 395.36" style="fill: rgb(51, 154, 255);"/><polygon class="cls-6_cpu-59" points="368.17 388.95 327.41 365.4 367.92 342.01 408.68 365.56 368.17 388.95"/><polygon class="cls-8_cpu-59 targetColor" points="368.14 383.16 337.43 365.43 367.95 347.8 398.67 365.53 368.14 383.16" style="fill: rgb(51, 154, 255);"/><polygon class="cls-6_cpu-59" points="368.13 380.26 342.43 365.43 367.96 350.7 393.66 365.52 368.13 380.26"/><path class="cls-6_cpu-59" d="M330.07,378.55h-.17c-.44-.09-.73-.52-.65-.96.66-2.7,2.6-4.91,5.19-5.91.42-.17.9.03,1.06.45,0,0,0,0,0,0,.17.42-.02.9-.44,1.07,0,0-.01,0-.02,0-2.06.8-3.6,2.55-4.14,4.69-.09.39-.44.66-.84.65Z"/><path class="cls-6_cpu-59" d="M336.56,382.56h-.16c-.44-.08-.74-.5-.66-.95,0,0,0,0,0-.01.67-2.7,2.6-4.9,5.19-5.91.42-.16.9.04,1.08.45.17.43-.04.91-.47,1.08-2.05.8-3.59,2.55-4.14,4.69-.09.39-.44.66-.84.65Z"/><path class="cls-6_cpu-59" d="M343.05,386.56h-.16c-.44-.08-.73-.51-.65-.96,0,0,0,0,0,0,.65-2.7,2.59-4.91,5.19-5.91.42-.17.9.02,1.07.44,0,0,0,.01,0,.02.16.42-.04.9-.45,1.08-2.06.8-3.61,2.54-4.15,4.69-.08.4-.45.68-.86.65Z"/><path class="cls-6_cpu-59" d="M349.54,390.57h-.16c-.44-.08-.73-.49-.65-.93,0,0,0-.02,0-.03.66-2.7,2.6-4.9,5.19-5.91.44-.13.9.12,1.03.56.11.38-.06.79-.41.97-2.06.8-3.6,2.55-4.14,4.69-.09.4-.46.68-.87.65Z"/><path class="cls-6_cpu-59" d="M356.03,394.57h-.16c-.44-.08-.73-.51-.65-.96,0,0,0,0,0,0,.66-2.7,2.6-4.91,5.19-5.91.44-.13.9.12,1.03.56.11.38-.06.79-.41.97-2.06.8-3.6,2.55-4.14,4.69-.09.4-.46.68-.87.65Z"/><path class="cls-6_cpu-59" d="M405.64,378.55h.16c.45-.09.74-.51.66-.96-.66-2.7-2.6-4.9-5.19-5.91-.44-.12-.9.15-1.01.59-.1.37.07.75.4.94,2.06.8,3.6,2.55,4.14,4.69.09.39.44.66.84.65Z"/><path class="cls-6_cpu-59" d="M399.15,382.56h.16c.44-.08.74-.5.66-.95,0,0,0,0,0-.01-.67-2.7-2.6-4.9-5.19-5.91-.44-.13-.9.12-1.03.56-.11.38.06.79.41.97,2.06.8,3.61,2.55,4.15,4.69.09.39.44.66.84.65Z"/><path class="cls-6_cpu-59" d="M392.66,386.56h.16c.44-.08.73-.51.65-.96,0,0,0,0,0,0-.65-2.7-2.59-4.91-5.19-5.91-.42-.17-.9.02-1.07.44,0,0,0,.01,0,.02-.16.42.04.9.45,1.08,2.06.8,3.61,2.54,4.15,4.69.08.4.45.68.86.65Z"/><path class="cls-6_cpu-59" d="M386.17,390.57h.16c.44-.08.73-.49.65-.93,0,0,0-.02,0-.03-.66-2.7-2.6-4.9-5.19-5.91-.44-.13-.9.12-1.03.56-.11.38.06.79.41.97,2.06.8,3.6,2.55,4.14,4.69.09.4.46.68.87.65Z"/><path class="cls-6_cpu-59" d="M379.68,394.57h.16c.44-.09.73-.52.65-.96-.66-2.7-2.6-4.91-5.19-5.91-.41-.21-.91-.06-1.12.35-.21.41-.06.91.35,1.12.05.03.1.05.15.06,2.06.8,3.6,2.55,4.14,4.69.09.4.46.68.87.65Z"/><polygon class="cls-8_cpu-59 targetColor" points="116.87 229.07 76.12 205.53 76.12 199.12 116.63 182.15 157.4 199.27 157.4 205.69 116.87 229.07" style="fill: rgb(51, 154, 255);"/><polygon class="cls-6_cpu-59" points="116.87 222.65 76.12 199.12 116.63 175.73 157.4 199.27 116.87 222.65"/><polygon class="cls-8_cpu-59 targetColor" points="116.85 216.87 86.14 199.14 116.65 181.51 147.38 199.25 116.85 216.87" style="fill: rgb(51, 154, 255);"/><polygon class="cls-6_cpu-59" points="116.84 213.98 91.14 199.15 116.67 184.4 142.37 199.24 116.84 213.98"/><path class="cls-6_cpu-59" d="M78.78,212.27h-.16c-.44-.08-.74-.5-.66-.95,0,0,0,0,0-.01.67-2.7,2.6-4.9,5.19-5.91.42-.17.9.03,1.06.45,0,0,0,0,0,0,.17.42-.02.9-.44,1.07,0,0-.01,0-.02,0-2.05.8-3.59,2.55-4.14,4.69-.09.39-.44.66-.84.65Z"/><path class="cls-6_cpu-59" d="M85.27,216.27h-.16c-.45-.09-.74-.51-.66-.96.66-2.7,2.6-4.9,5.19-5.91.42-.17.9.03,1.08.45.16.42-.04.9-.45,1.08-2.06.79-3.61,2.54-4.15,4.69-.08.39-.44.67-.84.65Z"/><path class="cls-6_cpu-59" d="M91.76,220.28h-.16c-.44-.08-.73-.49-.65-.93,0,0,0-.02,0-.03.66-2.7,2.6-4.9,5.19-5.91.41-.21.91-.06,1.12.35.21.41.06.91-.35,1.12-.05.03-.1.05-.15.06-2.06.8-3.61,2.55-4.15,4.69-.08.4-.45.68-.86.65Z"/><path class="cls-6_cpu-59" d="M98.25,224.28h-.16c-.44-.08-.73-.51-.65-.96,0,0,0,0,0,0,.66-2.7,2.6-4.91,5.19-5.91.41-.21.91-.06,1.12.35.21.41.06.91-.35,1.12-.05.03-.1.05-.15.06-2.06.8-3.6,2.55-4.14,4.69-.09.4-.46.68-.87.65Z"/><path class="cls-6_cpu-59" d="M104.75,228.29h-.17c-.44-.08-.73-.51-.65-.96,0,0,0,0,0,0,.67-2.7,2.6-4.9,5.19-5.91.44-.12.9.15,1.01.59.1.37-.07.75-.4.94-2.05.8-3.59,2.55-4.14,4.69-.09.39-.44.66-.84.65Z"/><path class="cls-6_cpu-59" d="M154.36,212.26h.16c.44-.08.73-.49.65-.93,0,0,0-.02,0-.03-.66-2.7-2.6-4.91-5.19-5.91-.44-.12-.9.15-1.01.59-.1.37.07.75.4.94,2.05.8,3.59,2.55,4.14,4.69.09.4.45.67.86.65Z"/><path class="cls-6_cpu-59" d="M147.86,216.27h.16c.45-.09.74-.51.66-.96-.66-2.7-2.6-4.9-5.19-5.91-.44-.12-.9.15-1.01.59-.1.37.07.75.4.94,2.06.8,3.6,2.55,4.14,4.69.09.39.44.66.84.65Z"/><path class="cls-6_cpu-59" d="M141.37,220.28h.16c.45-.09.74-.51.66-.96-.67-2.7-2.6-4.9-5.19-5.91-.41-.21-.91-.06-1.12.35-.21.41-.06.91.35,1.12.05.03.1.05.15.06,2.06.8,3.61,2.55,4.15,4.69.09.39.44.66.84.65Z"/><path class="cls-6_cpu-59" d="M134.88,224.28h.16c.44-.08.73-.51.65-.96,0,0,0,0,0,0-.66-2.7-2.6-4.91-5.19-5.91-.42-.17-.9.02-1.07.44,0,0,0,.01,0,.02-.17.42.03.9.45,1.08,2.06.79,3.61,2.54,4.14,4.69.09.4.46.68.87.65Z"/><path class="cls-6_cpu-59" d="M128.39,228.29h.16c.44-.08.73-.49.65-.93,0,0,0-.02,0-.03-.66-2.7-2.6-4.9-5.19-5.91-.42-.17-.9.03-1.08.45-.17.42.02.9.44,1.07,0,0,.01,0,.02,0,2.05.8,3.59,2.55,4.14,4.69.09.4.46.67.87.65Z"/><polygon class="cls-8_cpu-59 targetColor" points="97.35 392.15 56.58 368.61 56.58 362.2 97.11 345.23 137.86 362.34 137.86 368.76 97.35 392.15" style="fill: rgb(51, 154, 255);"/><polygon class="cls-6_cpu-59" points="97.35 385.73 56.58 362.2 97.11 338.81 137.86 362.34 97.35 385.73"/><polygon class="cls-8_cpu-59 targetColor" points="97.33 379.95 66.6 362.21 97.13 344.6 127.85 362.33 97.33 379.95" style="fill: rgb(51, 154, 255);"/><polygon class="cls-6_cpu-59" points="97.31 377.06 71.61 362.22 97.15 347.49 122.84 362.31 97.31 377.06"/><path class="cls-6_cpu-59" d="M59.25,375.34h-.16c-.44-.08-.73-.51-.65-.96,0,0,0,0,0,0,.66-2.7,2.6-4.91,5.19-5.91.41-.17.88.02,1.05.43,0,0,0,.02.01.03.17.42-.03.9-.45,1.06,0,0,0,0,0,0-2.05.8-3.59,2.55-4.14,4.69-.08.4-.45.68-.86.66Z"/><path class="cls-6_cpu-59" d="M65.75,379.34h-.16c-.44-.08-.74-.5-.66-.95,0,0,0,0,0-.01.67-2.7,2.6-4.9,5.19-5.91.42-.17.9.03,1.06.45,0,0,0,0,0,0,.17.42-.02.9-.44,1.07,0,0-.01,0-.02,0-2.05.8-3.59,2.55-4.14,4.69-.09.39-.44.66-.84.65Z"/><path class="cls-6_cpu-59" d="M72.24,383.33h-.16c-.44-.09-.73-.51-.66-.96.66-2.7,2.6-4.9,5.19-5.91.42-.17.9.02,1.07.44,0,0,0,.01,0,.02.17.42-.03.9-.45,1.06,0,0,0,0,0,0-2.06.8-3.61,2.55-4.15,4.69-.08.4-.44.68-.84.66Z"/><path class="cls-6_cpu-59" d="M78.73,387.35h-.16c-.44-.08-.73-.49-.65-.93,0,0,0-.02,0-.03.66-2.7,2.6-4.9,5.19-5.91.44-.13.9.12,1.03.56.11.38-.06.79-.41.97-2.06.8-3.6,2.55-4.14,4.69-.09.4-.46.68-.87.65Z"/><path class="cls-6_cpu-59" d="M85.22,391.36h-.16c-.44-.08-.73-.51-.65-.96,0,0,0,0,0,0,.66-2.7,2.6-4.91,5.19-5.91.42-.17.9.02,1.07.44,0,0,0,.01,0,.02.17.42-.03.9-.45,1.08-2.06.8-3.6,2.55-4.14,4.69-.09.4-.46.68-.87.65Z"/><path class="cls-6_cpu-59" d="M134.82,375.34h.16c.45-.09.74-.51.66-.96-.66-2.7-2.6-4.9-5.19-5.91-.42-.17-.9.03-1.06.45s.03.9.45,1.06c2.05.8,3.59,2.55,4.14,4.69.08.4.44.68.84.66Z"/><path class="cls-6_cpu-59" d="M128.33,379.34h.16c.44-.08.74-.5.66-.95,0,0,0,0,0-.01-.67-2.7-2.6-4.9-5.19-5.91-.41-.21-.91-.06-1.12.35-.21.41-.06.91.35,1.12.05.03.1.05.15.06,2.06.8,3.61,2.55,4.15,4.69.08.39.44.67.84.65Z"/><path class="cls-6_cpu-59" d="M121.85,383.33h.16c.44-.08.73-.51.65-.96,0,0,0,0,0,0-.66-2.7-2.6-4.91-5.19-5.91-.42-.17-.9.02-1.07.44,0,0,0,.01,0,.02-.17.42.03.9.45,1.06,0,0,0,0,0,0,2.06.8,3.61,2.55,4.15,4.69.07.41.44.7.86.66Z"/><path class="cls-6_cpu-59" d="M115.36,387.35h.16c.44-.08.73-.49.65-.93,0,0,0-.02,0-.03-.66-2.7-2.6-4.9-5.19-5.91-.42-.17-.9.03-1.08.45-.17.42.02.9.44,1.07,0,0,.01,0,.02,0,2.05.8,3.59,2.55,4.14,4.69.09.4.46.68.87.65Z"/><path class="cls-6_cpu-59" d="M108.85,391.36h.17c.44-.09.73-.52.65-.96-.66-2.7-2.6-4.9-5.19-5.91-.42-.17-.9.03-1.06.45,0,0,0,0,0,0-.17.42.03.9.45,1.08,2.06.8,3.6,2.55,4.14,4.69.09.39.44.66.84.65Z"/><polygon class="cls-8_cpu-59 targetColor" points="383.98 242.15 343.21 218.62 343.21 212.19 383.72 195.23 424.49 212.35 424.49 218.76 383.98 242.15" style="fill: rgb(51, 154, 255);"/><polygon class="cls-6_cpu-59" points="383.98 235.73 343.21 212.19 383.72 188.8 424.49 212.35 383.98 235.73"/><polygon class="cls-8_cpu-59 targetColor" points="383.94 229.95 353.23 212.22 383.74 194.59 414.47 212.32 383.94 229.95" style="fill: rgb(51, 154, 255);"/><polygon class="cls-6_cpu-59" points="383.93 227.05 358.24 212.22 383.77 197.49 409.46 212.31 383.93 227.05"/><path class="cls-6_cpu-59" d="M345.87,225.34h-.16c-.45-.09-.74-.51-.66-.96.66-2.7,2.6-4.9,5.19-5.91.42-.17.9.03,1.08.45.16.43-.05.9-.47,1.08-2.06.8-3.6,2.55-4.14,4.69-.08.39-.44.67-.84.65Z"/><path class="cls-6_cpu-59" d="M352.36,229.35h-.16c-.44-.08-.73-.49-.65-.93,0,0,0-.02,0-.03.66-2.7,2.6-4.91,5.19-5.91.44-.13.9.12,1.03.56.11.38-.06.79-.41.97-2.06.8-3.61,2.55-4.15,4.69-.09.4-.45.67-.86.65Z"/><path class="cls-6_cpu-59" d="M358.85,233.35h-.16c-.44-.08-.73-.51-.65-.96,0,0,0,0,0,0,.66-2.7,2.6-4.91,5.19-5.91.42-.17.9.02,1.07.44,0,0,0,.01,0,.02.16.42-.04.9-.45,1.08-2.06.79-3.61,2.54-4.14,4.69-.09.4-.46.68-.87.65Z"/><path class="cls-6_cpu-59" d="M365.34,237.36h-.16c-.44-.08-.73-.49-.65-.93,0,0,0-.02,0-.03.66-2.7,2.6-4.9,5.19-5.91.42-.17.9.03,1.08.45.17.42-.02.9-.44,1.07,0,0-.01,0-.02,0-2.06.78-3.62,2.5-4.19,4.63-.07.4-.41.69-.82.7Z"/><path class="cls-6_cpu-59" d="M371.84,241.36h-.16c-.45-.09-.74-.51-.66-.96.66-2.7,2.6-4.9,5.19-5.91.44-.12.9.15,1.01.59.1.37-.07.75-.4.94-2.06.8-3.6,2.55-4.14,4.69-.09.39-.44.66-.84.65Z"/><path class="cls-6_cpu-59" d="M421.45,225.34h.16c.44-.08.73-.51.65-.96,0,0,0,0,0,0-.66-2.7-2.6-4.91-5.19-5.91-.42-.17-.9.02-1.07.44,0,0,0,.01,0,.02-.17.42.03.9.45,1.08,2.06.8,3.6,2.55,4.14,4.69.09.4.46.68.87.65Z"/><path class="cls-6_cpu-59" d="M414.95,229.35h.17c.44-.08.73-.51.65-.96,0,0,0,0,0,0-.67-2.7-2.6-4.9-5.19-5.91-.44-.12-.9.15-1.01.59-.1.37.07.75.4.94,2.05.8,3.59,2.55,4.14,4.69.09.39.44.66.84.65Z"/><path class="cls-6_cpu-59" d="M408.46,233.35h.16c.45-.09.74-.51.66-.96-.66-2.7-2.6-4.9-5.19-5.91-.4-.22-.91-.07-1.13.33s-.07.91.33,1.13c.06.03.12.06.19.08,2.06.8,3.6,2.55,4.14,4.69.08.39.44.67.84.65Z"/><path class="cls-6_cpu-59" d="M401.97,237.36h.16c.44-.08.73-.49.65-.93,0,0,0-.02,0-.03-.66-2.7-2.6-4.91-5.19-5.91-.41-.21-.91-.06-1.12.35-.21.41-.06.91.35,1.12.05.03.1.05.15.06,2.08.77,3.66,2.49,4.24,4.63.06.38.38.68.77.7Z"/><path class="cls-6_cpu-59" d="M395.48,241.36h.16c.44-.08.73-.51.65-.96,0,0,0,0,0,0-.66-2.7-2.6-4.91-5.19-5.91-.42-.17-.9.02-1.07.44,0,0,0,.01,0,.02-.17.42.03.9.45,1.08,2.06.79,3.61,2.54,4.14,4.69.09.4.46.68.87.65Z"/><g class="cls-9_cpu-59"><polygon class="cls-6_cpu-59" points="120.16 352.89 118.89 350.62 155.12 330.41 184.17 343.77 223.92 321.65 225.19 323.92 184.28 346.67 155.24 333.32 120.16 352.89"/></g><g class="cls-9_cpu-59"><polygon class="cls-6_cpu-59" points="128.71 331.31 127.48 329.02 157.33 313 171.88 319.34 188.87 307.02 190.39 309.12 172.19 322.31 157.45 315.89 128.71 331.31"/></g><g class="cls-9_cpu-59"><polygon class="cls-6_cpu-59" points="306.19 384.31 276.09 368.52 326.5 335.77 280.17 315.76 281.19 313.37 331.98 335.3 281.22 368.28 307.4 382 306.19 384.31"/></g><g class="cls-9_cpu-59"><polygon class="cls-6_cpu-59" points="129.2 274.43 104.45 260.61 188.97 211.14 190.29 213.39 109.68 260.55 129.22 271.46 174.61 246.73 202.02 261.8 200.76 264.07 174.59 249.69 129.2 274.43"/></g></g><g id="character_cpu-59"><path class="cls-2_cpu-59" d="M234.12,287.01l-49.89-14.28c1.11-1.06,2.38-1.93,3.76-2.6l39.63-21.34c1.14-.94,2.84-.78,3.78.36.04.05.08.1.11.14l31.41,28.07c.97.68,1.67,1.69,1.96,2.84.04,1.39-.79,2.67-2.08,3.19-1.28.47-2.64.66-4,.53-3.55-.12-7.08-.55-10.55-1.3-1.47-.42-2.99-.59-4.52-.51-1.56.11-2.91,1.13-3.45,2.6"/><path class="cls-8_cpu-59 targetColor" d="M226.24,279.88s-.84,2.09.19,3.31c1.04,1.22,11.77,7.9,19,2.6,7.23-5.31-9.8-6.07-9.8-6.07l-9.4.17Z" style="fill: rgb(51, 154, 255);"/><path class="cls-7_cpu-59" d="M247.56,270.9c-.05,1.66.25,3.3.9,4.83.81,1.42,2.04,2.55,3.52,3.24,3.15,1.65,6.82,2.01,10.24,1.01.47-.08.89-.34,1.18-.71.18-.31.25-.66.21-1.01-.25-1.89-1.21-3.61-2.69-4.82-1.46-1.2-2.7-2.63-3.69-4.24-1.57-3.17-.4-11.62-6.37-10.25-5,1.08-3.44,8.42-3.3,11.95Z"/><path class="cls-8_cpu-59 targetColor" d="M246.75,276.61s-.84,2.09.19,3.31c1.04,1.22,11.77,7.9,19,2.53,7.23-5.37-9.8-6.07-9.8-6.07l-9.4.23Z" style="fill: rgb(51, 154, 255);"/><path class="cls-6_cpu-59" d="M247.15,271.7c.68-.33,1.5-.12,1.93.51,1.44,1.63,3.61,2.4,5.75,2.05,2.36-.56,3.3-3.27,4.48-3.28s7.41,5.31,7.79,7.59-2.83,3.89-6.36,4.18-11.53-2.22-12.98-4.08c-1.33-2.08-1.56-4.69-.61-6.97Z"/><path class="cls-7_cpu-59" d="M227.07,274.17c-.05,1.66.25,3.3.9,4.83.81,1.42,2.04,2.55,3.52,3.24,3.15,1.65,6.82,2.01,10.24,1.01.47-.08.89-.34,1.18-.71.18-.31.25-.66.21-1.01-.25-1.89-1.21-3.61-2.69-4.82-1.46-1.2-2.7-2.63-3.69-4.24-1.57-3.17-.4-11.68-6.37-10.25-5,1.13-3.44,8.42-3.3,11.95Z"/><path class="cls-6_cpu-59" d="M226.65,275.03c.69-.31,1.51-.07,1.92.57,1.44,1.63,3.61,2.4,5.75,2.05,2.36-.56,3.3-3.27,4.48-3.28s7.41,5.31,7.79,7.59-2.83,3.96-6.36,4.18-11.53-2.22-13.04-4.08c-1.34-2.11-1.53-4.75-.53-7.03Z"/><path class="cls-4_cpu-59" d="M222.79,185.94s-1.12,61.39,3.44,81.87l11.54,1.41,7.98-84.05-22.96.77Z"/><path class="cls-4_cpu-59" d="M258.43,179.23s5.44,33.12-1.16,86.3l-11.54,1.43-7.98-84.05,20.68-3.67Z"/><path class="cls-6_cpu-59" d="M271.97,152.83c-.13,2.22-.86,4.15-2.78,4.79-.16.06-.32.11-.49.13-3.54.71-8.19-1.99-11.43-4.34-1.36-.98-2.66-2.03-3.89-3.15v-23.71l17.24,17.65c.91,2.79,1.37,5.7,1.36,8.63Z"/><path class="cls-6_cpu-59" d="M258.31,154.4c0,1.1.14,2.23.14,3.35,0,6.13-1.41,12.45.4,18.46.6,1.28.78,2.71.52,4.1-.55,1.1-1.47,1.98-2.6,2.47-5.4,2.95-11.68,3.89-17.73,4.71-4.58.64-11.08,2-15.33-.47-1.8-1.05-2.41-3.01-2.99-4.97-1.84-6.2-2.38-12.89-2.87-19.33,0-.84-.12-1.69-.17-2.6-.35-5.87-.46-11.73-.35-17.6.08-4.27.42-8.86,3.19-12.08,3.7-4.28,10.86-7.11,16.29-8.11,1.76-.36,3.57-.46,5.36-.3,2.54.41,4.99,1.24,7.24,2.47,2.7,1.3,5.1,2.45,6.42,5.13,1.46,3.08,2.47,6.35,3.01,9.71.49,3.15.55,6.36.17,9.53-.16,1.56-.56,3.1-.71,4.65,0,.34-.01.61-.01.9Z"/><path class="cls-1_cpu-59" d="M233.21,188.9c-.69.2-1.41.25-2.12.17-1.7-.09-3.35-1.01-5.01-1.3-.82-.16-1.56-.56-2.36-.75-4.06-1.01-4.54-12.41-4.95-15.47-1.05-8.11-2.6-16.51-2.76-24.66-.17-3.14.19-6.28,1.08-9.29.93-3.04,3.16-5.52,6.09-6.76.56-.24,1.19-.31,1.79-.19,2.38.61,2.3,3.32,3.09,5.11.91,2.01,3.47,3.65,5.8,2.6,2.34-1.05,2.67-4.44,3.57-7.01.62-1.9,1.92-3.51,3.65-4.52,4.24-2.26,7.55,1.21,8.98,4.97,1.43,3.76-.13,8.7-.88,12.73-1.88,9.99-4.52,20.01-9.66,28.87-2.08,3.58-6.05,7.87-6.02,12.06,0,2.04.57,3.08-.29,3.45Z"/><path class="cls-7_cpu-59" d="M243.14,119.68c-.83.48-1.81.64-2.75.45-.79-.15-1.56-.38-2.31-.67-1.21-.43-.97,1.17-1.04,2.12-.08,1.2-.03,2.4.14,3.6.1.43.1.87,0,1.3-.19.65-.73,1.15-1.39,1.3-.63.15-1.29.15-1.92,0-.72-.14-1.43-.34-2.12-.61-.58-.19-1.09-.53-1.49-.99-.43-.75-.6-1.63-.48-2.49.21-6.19-.22-13.11,2.3-18.92.95-3.05,4.2-4.75,7.25-3.8.29.09.57.2.83.33,2.43.7,4.61,2.09,6.27,4.01.47.68.61,1.54.39,2.34-.14,1.41-.35,2.81-.62,4.21-.31,1.57-.69,3.14-1.14,4.69-.25,1.24-.93,2.36-1.92,3.15Z"/><path class="cls-4_cpu-59" d="M244.62,105.4c-.31.02-.62.02-.93,0-1.45-.5-2.96-.77-4.49-.8-2.62.46-4.5,2.78-4.41,5.44-.73,0-.48-1.18-.83-1.83-.35-.65-1.71-.34-2.04.45-.22.85-.22,1.74,0,2.6.18,1.64-.22,3.3-1.12,4.69-.22.32-.61.67-.93.47s-.4-.9-.53-1.3c-.22-.53-.49-1.03-.79-1.52-.57-.95-1.3-1.84-1.87-2.78-1.06-1.66-1.91-3.73-1.3-5.59.29-.76.78-1.42,1.41-1.92.64-.51,1.49-.57,2.12-1.01s.34-.84.55-1.41c.8-1.63,2-3.02,3.49-4.06,2.49-2.2,5.78-3.26,9.09-2.93,3.51.67,6.24,3.44,6.85,6.96,1.2.72,1.88,2.05,1.77,3.44.01.61-.09,1.23-.3,1.8-.58,1.44-2,2.37-3.56,2.32.19-.71.25-1.44.17-2.17-.01-.16-.06-.32-.14-.45-.22-.42-1.36-.39-2.19-.38Z"/><path class="cls-5_cpu-59" d="M238.35,119.55l-.43-.16c-.1-.04-.22-.04-.32,0-.13,0-.19.18-.25.3-.39.97-.54,2.02-.44,3.06l.17,1.62s-5.31-2.6-3.47-7.96c1.45,1.21,3.03,2.27,4.71,3.14h.03Z"/><path class="cls-6_cpu-59" d="M286.33,146.7c-2.26,3.2-5.07,5.99-8.28,8.24-2.32,1.58-5,2.54-7.79,2.79-.37.04-.74,0-1.09-.12-.59-.18-1.12-.54-1.49-1.04-1.17-1.39-1.87-3.11-2-4.92-.19-4.72,4.93-7.46,4.93-7.46,0,0,11.68-3.73,12.98-3.12.77.32,1.48,1.97,1.97,3.39.49,1.19.77,2.23.77,2.23Z"/><path class="cls-8_cpu-59 targetColor" d="M269.36,144.31l6.83-21.47c.47-1.49,1.91-2.46,3.47-2.35l5.44.4c1.87.14,3.27,1.76,3.13,3.63-.03.34-.1.68-.23,1l-8.54,21.26c-.54,1.33-1.86,2.18-3.3,2.1l-3.74-.18c-1.87-.1-3.3-1.7-3.2-3.56.02-.28.07-.56.15-.84Z" style="fill: rgb(51, 154, 255);"/><path class="cls-6_cpu-59" d="M234.9,168.8h0c-4.56,1.61-9.55-.77-11.18-5.32l-7.93-22.35c-1.61-4.56.77-9.55,5.32-11.18h0c4.56-1.61,5.33,1.3,6.94,5.8l6.85,20.43c1.62,4.53,4.54,10.99-.01,12.62Z"/><path class="cls-1_cpu-59" d="M286.33,146.7c-2.26,3.2-5.07,5.99-8.28,8.24-2.32,1.58-5,2.54-7.79,2.79-.37.04-.74,0-1.09-.12-.16.06-.32.11-.49.13-3.54.71-8.19-1.99-11.43-4.34v-.08l1.1-7.09c2.12,2.19,4.59,4.02,7.31,5.41,1.92,1.03,4.11,1.44,6.27,1.17.58-.09,1.14-.27,1.67-.52,4.33-2.05,8.37-4.67,12.01-7.79.45,1.14.73,2.18.73,2.18Z"/><path class="cls-7_cpu-59" d="M240.8,119.84c.17-.69.49-1.51,1.19-1.65.92-.17,1.61.96,2.6,1.05.49,0,1.03-.19,1.48,0,.22.12.42.29.57.49,2.8,3.62,2.14,8.83-1.48,11.64-.32.25-.66.47-1.01.67-.58.37-1.27.56-1.96.53-.64-.12-1.24-.38-1.77-.75-1.75-1.09-.92-2.95-.74-4.66.21-2.46.59-4.91,1.12-7.32Z"/><path class="cls-6_cpu-59" d="M234.01,168.91c-2.36.48-11.15-2.66-4.32-18.68,3.12-7.33,4.72-14.28,8.85-21.12.21-.43.54-.79.96-1.03.42-.13.88-.13,1.3,0,1.97.33,3.91.79,5.81,1.38.28.05.53.2.71.42.12.24.16.51.12.78-.51,6.62-3.09,12.89-4.14,19.47-.67,4.27-.75,8.77-2.82,12.58-.71,1.27-5.01,5.91-6.48,6.2Z"/><path class="cls-7_cpu-59" d="M283.92,135.71c-1.31-1.08-3.12-1.31-4.66-.61-1.86,1.09-3.03,3.04-3.13,5.19-.23,1.63.07,3.29.84,4.74,1.49,2.48,4.55,3.54,7.26,2.49,2.28-1.07,3.58-3.52,3.19-6.01-.29-.84-.73-1.61-1.3-2.28-.55-1.28-1.3-2.46-2.21-3.52Z"/></g></svg>