<svg id="_0512_chart_3" xmlns="http://www.w3.org/2000/svg" xmlns:xlink="http://www.w3.org/1999/xlink" viewBox="0 0 500 500" data-imageid="chart-3-1" imageName="Chart 3" class="illustrations_image" style="width: 177px;"><defs><style>.cls-1_chart-3-1{opacity:.31;}.cls-1_chart-3-1,.cls-2_chart-3-1,.cls-3_chart-3-1,.cls-4_chart-3-1,.cls-5_chart-3-1,.cls-6_chart-3-1,.cls-7_chart-3-1,.cls-8_chart-3-1,.cls-9_chart-3-1,.cls-10_chart-3-1,.cls-11_chart-3-1,.cls-12_chart-3-1,.cls-13_chart-3-1,.cls-14_chart-3-1,.cls-15_chart-3-1,.cls-16_chart-3-1,.cls-17_chart-3-1,.cls-18_chart-3-1,.cls-19_chart-3-1,.cls-20_chart-3-1,.cls-21_chart-3-1,.cls-22_chart-3-1,.cls-23_chart-3-1{stroke-width:0px;}.cls-1_chart-3-1,.cls-3_chart-3-1,.cls-23_chart-3-1{fill:#68e1fd;}.cls-1_chart-3-1,.cls-3_chart-3-1,.cls-24_chart-3-1{isolation:isolate;}.cls-2_chart-3-1{fill:url(#linear-gradient);}.cls-3_chart-3-1{opacity:.18;}.cls-4_chart-3-1{fill:url(#linear-gradient-11-chart-3-1);}.cls-5_chart-3-1{fill:url(#linear-gradient-12-chart-3-1);}.cls-6_chart-3-1{fill:url(#linear-gradient-13-chart-3-1);}.cls-7_chart-3-1{fill:url(#linear-gradient-10-chart-3-1);}.cls-8_chart-3-1{fill:url(#linear-gradient-15-chart-3-1);}.cls-9_chart-3-1{fill:url(#linear-gradient-14-chart-3-1);}.cls-10_chart-3-1{fill:url(#linear-gradient-4-chart-3-1);}.cls-11_chart-3-1{fill:url(#linear-gradient-2-chart-3-1);}.cls-12_chart-3-1{fill:url(#linear-gradient-3-chart-3-1);}.cls-13_chart-3-1{fill:url(#linear-gradient-8-chart-3-1);}.cls-14_chart-3-1{fill:url(#linear-gradient-9-chart-3-1);}.cls-15_chart-3-1{fill:url(#linear-gradient-7-chart-3-1);}.cls-16_chart-3-1{fill:url(#linear-gradient-5-chart-3-1);}.cls-17_chart-3-1{fill:url(#linear-gradient-6-chart-3-1);}.cls-18_chart-3-1{fill:#473f47;}.cls-19_chart-3-1{fill:#c14834;}.cls-20_chart-3-1{fill:#fff;}.cls-21_chart-3-1{fill:#ffb4a3;}.cls-22_chart-3-1{fill:#eaeaea;}.cls-24_chart-3-1{fill:none;opacity:.43;stroke:#f8f8f8;stroke-linecap:round;stroke-linejoin:round;stroke-width:1.11px;}</style><linearGradient id="linear-gradient-chart-3-1" x1="-929.8" y1="4203.36" x2="-865.77" y2="4108.94" gradientTransform="translate(-791.21 4455.83) rotate(26.48) scale(1 -1)" gradientUnits="userSpaceOnUse"><stop offset="0" stop-color="#eaeaea"/><stop offset="1" stop-color="#a3a3a3"/></linearGradient><linearGradient id="linear-gradient-2-chart-3-1" x1="-906.36" y1="4164.26" x2="-833.07" y2="4123.28" xlink:href="#linear-gradient-chart-3-1"/><linearGradient id="linear-gradient-3-chart-3-1" x1="-1096.62" y1="4353" x2="-897.96" y2="3976.95" gradientTransform="translate(-798.45 4384.1) rotate(12.89) scale(.85 -1) skewX(16.54)" gradientUnits="userSpaceOnUse"><stop offset="0" stop-color="#231f20"/><stop offset=".08" stop-color="#231f20" stop-opacity=".69"/><stop offset=".21" stop-color="#231f20" stop-opacity=".32"/><stop offset="1" stop-color="#231f20" stop-opacity="0"/></linearGradient><linearGradient id="linear-gradient-4-chart-3-1" x1="-1056.98" y1="4373.94" x2="-858.32" y2="3997.89" xlink:href="#linear-gradient-3-chart-3-1"/><linearGradient id="linear-gradient-5-chart-3-1" x1="649.95" y1="4115.21" x2="779.81" y2="4042.89" gradientTransform="translate(-472.05 4372.6) scale(1 -1)" xlink:href="#linear-gradient-3-chart-3-1"/><linearGradient id="linear-gradient-6-chart-3-1" x1="296.92" y1="200.1" x2="216.13" y2="291.16" gradientUnits="userSpaceOnUse"><stop offset="0" stop-color="#231f20" stop-opacity="0"/><stop offset="1" stop-color="#231f20"/></linearGradient><linearGradient id="linear-gradient-7-chart-3-1" x1="244.52" y1="190.23" x2="243.95" y2="171.5" xlink:href="#linear-gradient-6-chart-3-1"/><linearGradient id="linear-gradient-8-chart-3-1" x1="598.81" y1="4269.33" x2="949.29" y2="4027.35" gradientTransform="translate(-472.05 4372.6) scale(1 -1)" xlink:href="#linear-gradient-3-chart-3-1"/><linearGradient id="linear-gradient-9-chart-3-1" x1="175.95" y1="201.97" x2="228.73" y2="231.18" xlink:href="#linear-gradient-6-chart-3-1"/><linearGradient id="linear-gradient-10-chart-3-1" x1="673.59" y1="4121.1" x2="930.37" y2="3976.4" gradientTransform="translate(-472.05 4372.6) scale(1 -1)" xlink:href="#linear-gradient-3-chart-3-1"/><linearGradient id="linear-gradient-11-chart-3-1" x1="575.73" y1="4235.89" x2="926.21" y2="3993.92" gradientTransform="translate(-472.05 4372.6) scale(1 -1)" xlink:href="#linear-gradient-3-chart-3-1"/><linearGradient id="linear-gradient-12-chart-3-1" x1="752.99" y1="4222.52" x2="766.38" y2="4082.54" gradientTransform="translate(-472.05 4372.6) scale(1 -1)" xlink:href="#linear-gradient-3-chart-3-1"/><linearGradient id="linear-gradient-13-chart-3-1" x1="248.73" y1="174.71" x2="265.59" y2="188.8" xlink:href="#linear-gradient-6-chart-3-1"/><linearGradient id="linear-gradient-14-chart-3-1" x1="586.82" y1="4251.96" x2="937.3" y2="4009.98" gradientTransform="translate(-472.05 4372.6) scale(1 -1)" xlink:href="#linear-gradient-3-chart-3-1"/><linearGradient id="linear-gradient-15-chart-3-1" x1="595.6" y1="4264.68" x2="946.08" y2="4022.71" gradientTransform="translate(-472.05 4372.6) scale(1 -1)" xlink:href="#linear-gradient-3-chart-3-1"/></defs><g id="background_chart-3-1"><path class="cls-3_chart-3-1 targetColor" d="M224.49,104.48c-101.1-48.92-162.94,24.96-170.21,43.31-24.4,62.23,13.06,114.3-21.68,156.26-34.75,41.96-13.01,153.35,104.07,114.28,117.08-39.07,225.69,1.47,282.13-13.01,56.43-14.48,96.92-176.5,37.6-222.81-52.1-40.71-148.22-37.57-231.91-78.03Z" style="fill: rgb(51, 154, 255);"/></g><g id="laptop_chart-3-1"><polygon class="cls-1_chart-3-1 targetColor" points="110.02 332.15 73.83 338.44 266.97 384.36 465.66 343.74 340.57 311.9 110.02 332.15" style="fill: rgb(51, 154, 255);"/><path class="cls-23_chart-3-1 targetColor" d="M261.45,303.09l75.23-127.28c1.05-1.83,3.05-2.91,5.16-2.77l149.19,6.05c3.17.14,5.62,2.81,5.49,5.98-.04.93-.31,1.84-.77,2.64l-85.27,144.56-149.02-29.17Z" style="fill: rgb(51, 154, 255);"/><path class="cls-2_chart-3-1" d="M108.3,326.05l1.69,6.02c.58,2.15,2.32,3.79,4.49,4.24l132.52,31.86c1.72.4,3.5.46,5.24.17l149.19-24.49c3-.5,5.21-3.08,5.24-6.13v-5.93l-298.38-5.74Z"/><path class="cls-18_chart-3-1" d="M257.57,302.64l75.23-127.28c1.07-1.81,3.06-2.87,5.16-2.77l149.19,6.07c3.17.14,5.62,2.81,5.49,5.98-.04.93-.31,1.84-.77,2.64l-85.27,144.56-149.02-29.2Z"/><path class="cls-11_chart-3-1" d="M406.59,331.79l-157.01,25.29c-1.12.21-2.26.21-3.38,0l-137.9-31.03,149.27-23.4,149.02,29.14Z"/><polygon class="cls-18_chart-3-1" points="184.03 316.65 309.29 340.33 377.64 330.12 256.4 305.03 184.03 316.65"/><polygon class="cls-18_chart-3-1" points="155.47 333.73 208.15 323.25 271.02 334.84 218.53 346.7 155.47 333.73"/><path class="cls-22_chart-3-1" d="M163.34,338.44c1.81,2.45,4.35,4.25,7.27,5.13,4.44,1.05,23.71,5.55,23.71,5.55,2.1.02,4.12-.84,5.55-2.38l-36.52-8.29Z"/><polygon class="cls-20_chart-3-1" points="262.76 299.18 401.43 326.96 480.74 189.89 333.19 179.77 262.76 299.18"/><path class="cls-24_chart-3-1" d="M345.36,205.59c1.18.06,2.35.3,3.47.69.51.2,1.07.2,1.58,0"/><polygon class="cls-23_chart-3-1 targetColor" points="310.53 285.03 294.98 281.54 307.21 257.41 322.79 260.91 310.53 285.03" style="fill: rgb(51, 154, 255);"/><polygon class="cls-23_chart-3-1 targetColor" points="329.75 289.36 314.17 285.84 339.12 236.73 354.68 240.22 329.75 289.36" style="fill: rgb(51, 154, 255);"/><polygon class="cls-23_chart-3-1 targetColor" points="348.94 293.68 333.38 290.16 348.55 260.24 364.14 263.76 348.94 293.68" style="fill: rgb(51, 154, 255);"/><polygon class="cls-23_chart-3-1 targetColor" points="368.16 297.98 352.57 294.49 385.43 229.79 400.99 233.29 368.16 297.98" style="fill: rgb(51, 154, 255);"/><polygon class="cls-12_chart-3-1" points="329.75 289.36 314.17 285.84 339.12 236.73 354.68 240.22 329.75 289.36"/><polygon class="cls-10_chart-3-1" points="368.16 297.98 352.57 294.49 385.43 229.79 400.99 233.29 368.16 297.98"/><polygon class="cls-23_chart-3-1 targetColor" points="387.35 302.31 371.79 298.82 413.8 216.04 429.36 219.53 387.35 302.31" style="fill: rgb(51, 154, 255);"/></g><g id="character_chart-3-1"><path class="cls-21_chart-3-1" d="M180.15,323.8c.01,1.41-.17,2.81-.55,4.16-.07.25-.22.47-.44.61-.4.16-.86.08-1.19-.19-3.21-2.07-4.59-6.06-3.36-9.68.52-2.28,1.72-4.35,3.44-5.93l2.99-2.16c.46-.36.98-.65,1.53-.86.58-.18,1.19-.24,1.8-.19,1.07-.01,2.13.17,3.13.55.11.05.21.11.31.19.11.21.11.46,0,.67-.6.72-1.33,1.31-2.16,1.75-2.28,1.59-3.91,3.94-4.6,6.63-.49,1.44-.78,2.94-.89,4.46Z"/><path class="cls-21_chart-3-1" d="M246.56,303.17c-.15.26-.26.54-.31.83-.06.24-.06.48,0,.72.42.99,1.1,1.84,1.97,2.47,1,.8,2.02,1.61,3.08,2.33.53.51,1.28.72,2,.55.63-.37.92-1.13.69-1.83-.24-.67-.6-1.29-1.05-1.83-.46-.54-.71-1.23-.72-1.94,0-1.16,1.3-1.94,1.36-3.11s-1.11-2.22-1.94-2.77c-2.11-1-4.27,3.05-5.07,4.58Z"/><path class="cls-18_chart-3-1" d="M276.98,273.77c-2.99,5.45-6.62,10.53-10.81,15.11-2.25,2.77-4.55,5.27-6.88,7.85-1.05,1.16-2.16,2.27-3.16,3.47s-2.02,1.97-3.97.94l-.47-.31c-.09-.05-.17-.1-.25-.17-.68-.51-1.31-1.1-1.86-1.75-.1-.12-.18-.26-.22-.42-.03-.11-.03-.22,0-.33,1.28-2.94,2.58-5.85,3.85-8.79.91-2.53,2.19-4.92,3.8-7.07,2.3-2.77,4.52-5.55,6.79-8.32-7.11-4.45-13.9-9.39-20.33-14.78-.92-.82-1.74-1.75-2.44-2.77-10.51-17.53-14.97-20.38-14.97-20.38l27.31-1.53s21.55,27.98,24.54,34.36c.69,1.69-.31,3.58-.94,4.88Z"/><path class="cls-18_chart-3-1" d="M243.95,258.22c-1.66,3.47-21.93,26.12-21.93,26.12-5.55,5.02-11.09,9.96-16.64,14.78-3.38,2.77-6.79,5.55-10.32,8.32-2.41,2.22-5.24,3.94-8.32,5.05-.48.07-.96.07-1.44,0-.79-.07-1.56-.28-2.27-.61-.07.02-.15.02-.22,0-.78-.36-1.39-1.01-1.72-1.8-.78-2.16,3.47-5.21,4.88-6.66l6.63-6.85c4.33-4.44,8.64-8.89,12.95-13.37l6.07-6.24s12.09-37.82,14.81-40.74c.12-.12.26-.23.42-.31.64-.35,1.37-.53,2.11-.5h0c.69-.05,1.39-.05,2.08,0h0c4.58.77,9.07,1.97,13.42,3.6,0,0,1.16,15.7-.5,19.19Z"/><path class="cls-16_chart-3-1" d="M217.61,273.36c-5.35,11.09-15.92,18.47-24.54,27.2-2.38,2.43-4.62,4.98-6.71,7.65-.99,1.38-2.2,2.59-3.58,3.58-.07.02-.15.02-.22,0-.78-.36-1.39-1.01-1.72-1.8-.78-2.16,3.47-5.21,4.88-6.66l6.63-6.85c4.33-4.44,8.64-8.89,12.95-13.37l6.07-6.24s12.09-37.82,14.81-40.74c.12-.12.26-.23.42-.31.68-.23,1.39-.4,2.11-.5h0c.6-.08,1.2-.08,1.8,0h.28c5.88,1.25.64,6.05-1.16,8.76-2.81,4.21-5.07,8.75-6.74,13.53-1.46,5.34-3.22,10.58-5.27,15.72Z"/><path class="cls-21_chart-3-1" d="M308.59,216.62c-.32.36-.61.74-.89,1.14-.31.42-.58.86-.92,1.41-.18.32-.42.61-.69.86-.28.24-.61.42-.97.53-1.19.12-2.39-.17-3.38-.83-3.18-.97-6.42-1.72-9.71-2.25-3.55-1.11-7.02-2.44-10.48-3.8l-8.32-3.16c-2.77-1.11-5.55-2.16-8.32-3.55l-1.58-.86c-.78-.44-1.75-.94-2.55-.53-.33.23-.6.52-.8.86-.76,1.51-1.11,3.19-1.03,4.88-.15,1.53-.49,3.03-1.03,4.46-.97,2.77-1.83,5.55-2.94,8.32-.69,2.61-1.86,5.07-3.47,7.24-1.14.88-2.53,1.36-3.97,1.39-3.06.09-6.11.48-9.1,1.16-1.32.57-2.68,1.03-4.08,1.39-2.13.28-4.29-.08-6.21-1.03-1.72-.94-1.3-2.77-.94-4.38,1.36-6.66,3.13-10.68-.78-16.64.78,1.16-10.09,7.54-11.54,7.76-6.1.92-10.45-2.77-15.5-5.55-3.07-1.52-6.23-2.81-9.48-3.88-.97-.37-1.97-.66-2.99-.86-1.06.03-2.12-.12-3.13-.44-.35-.21-.66-.47-.92-.78-.49-.51-.9-1.09-1.22-1.72-.31-.76-.83-1.41-1.5-1.89-.95-.39-2.02-.39-2.97,0-.5.15-1.01.24-1.53.28-.2.05-.41-.02-.55-.17-.18-.18-.18-.48,0-.67.17-.18.38-.31.61-.39,1.25-.53,2.5-1.03,3.74-1.47-1.28-.83-2.94-.25-4.41-.5-.19-.02-.37-.09-.53-.19-.2-.31-.11-.71.19-.92.3-.17.65-.25,1-.22,1.44,0,2.77-.17,4.33-.22-1.5-1.33-4.13-.44-5.55-1.75.84-.76,1.99-1.1,3.11-.92,1.68-.04,3.36.2,4.96.72.98.38,1.91.88,2.77,1.47,3.31,2.62,6.82,5,10.48,7.1,2.49,1.11,5.12,1.86,7.82,2.25,1.16.22,2.38.31,3.55.47,1.16.17,2.77.64,3.99.94.52.12,1.06.12,1.58,0,.4-.13.77-.35,1.08-.64,2.26-2,4.14-4.39,5.57-7.04,1.66-2.77,3.66-5.21,5.55-7.85.7-1.12,1.65-2.07,2.77-2.77,2.02-1.11,4.55-.42,6.85-.69,1.95-.19,3.72-1.2,4.88-2.77,1.08-1.77.64-4.13,1.8-5.91.71-.97,1.67-1.72,2.77-2.19,1.24-.64,2.43-1.39,3.55-2.22.89-.61,2.02-1.25,2.99-.72.3.13.51.4.58.72.07.26.07.54,0,.8-.41,1.29-.75,2.61-1.03,3.94-.4,1.36-.4,2.8,0,4.16.72,1.89,3.36,2.61,5.13,3.02,2.55.64,5.24.36,7.82.94,2.42.73,4.67,1.9,6.66,3.47,3.19,2.25,6.13,4.77,9.21,7.15,1.55,1.22,3.13,2.41,4.8,3.49,2.21,1.12,4.51,2.04,6.88,2.77,2.63,1.11,5.34,2.04,8.1,2.77,3.61,1.01,7.4,1.19,11.09.53.17,1.43-.28,2.87-1.25,3.94Z"/><path class="cls-17_chart-3-1" d="M306.1,220.03c-.28.24-.61.42-.97.53-1.19.12-2.39-.17-3.38-.83-3.18-.97-6.42-1.72-9.71-2.25-3.55-1.11-7.02-2.44-10.48-3.8l-8.32-3.16c-2.77-1.11-5.55-2.16-8.32-3.55.75.39,2.77-4.16,3.16-4.63,2.27-2.61,2.11,2.19,2.33,3.77.01.33.1.65.25.94.29.36.67.63,1.11.78,5.32,2.33,10.74,4.41,16.25,6.24,2.77.92,5.55,1.69,8.46,2.58,2.33.72,4.71.97,7.13,1.5.97.22,2.14.58,2.33,1.58.07.09.13.2.17.31Z"/><path class="cls-15_chart-3-1" d="M240.02,185.84c.2.93.12,1.89-.22,2.77-.58,1.14,4.6,1.64,5.85,0,1.25-2,2.37-4.07,3.36-6.21l-8.98,3.44Z"/><path class="cls-21_chart-3-1" d="M245.95,185.23c-1.48.88-3.19,1.3-4.91,1.19-1.75-.09-3.36-1.01-4.33-2.47-.53-.98-.86-2.05-.97-3.16-.69-5.37.28-10.83,2.77-15.64.37-.78.9-1.48,1.55-2.05.93-.58,2.02-.81,3.11-.67,2.07.22,4.01,1.1,5.55,2.5,1.64,1.36,3.12,2.91,4.41,4.6.8,1.08,2.27,2.77,1.97,4.19-.55,1.38-1.28,2.69-2.16,3.88-1.58,3.14-4,5.78-6.99,7.63Z"/><path class="cls-21_chart-3-1" d="M314.39,214.54c.17-.07.31-.21.36-.39,0-.33-.31-.55-.64-.67-1.09-.34-2.22-.57-3.36-.69-.78,0-2.22,0-2.77.75s.25,1.28.89,1.55c1.85.49,3.81.29,5.52-.55Z"/><path class="cls-19_chart-3-1" d="M313.7,196.46c-3.47,2.16-7.02.53-10.43,3.27-1.62,1.63-3.49,2.98-5.55,3.99-1.37.45-2.81.63-4.24.53-5.96-.26-11.59-2.85-15.67-7.21-.85-1-1.77-1.93-2.77-2.77-4.16-3.16-10.2-1.14-15.25-2.47-5.1-1.48-8.63-6.14-8.65-11.45.23-1.92.35-3.86.36-5.8-.09-.64-.25-1.28-.47-1.89-.52-1.26-1.21-2.45-2.05-3.52.24,1.14.24,2.32,0,3.47-.19,1.17.06,2.36.69,3.36-1.48-.78-2.56-2.15-2.97-3.77v-1.11c-.23-.93-.77-1.75-1.53-2.33-1.08-.89-2.33-1.55-3.44-2.38-1.07-.74-1.92-1.76-2.47-2.94-.26-.57-.36-1.21-.28-1.83.33-2.32,1.71-4.37,3.74-5.55,2.73-1.44,5.93-1.68,8.85-.67,2.86,1.06,5.49,2.68,7.71,4.77,1.39,1.55,3.2,2.65,5.21,3.19,1.58.05,3.16-.23,4.63-.83,2.55-.88,5.28-1.14,7.96-.75,4.11,1.28,7.78,3.68,10.59,6.93,2.89,3.26,6.8,5.43,11.09,6.16,3.42-.23,6.85.27,10.07,1.47,2.59,1.38,4.79,3.37,6.43,5.8,1.74,2.35,2.61,5.23,2.47,8.15-.25,2.6-1.76,4.92-4.05,6.18Z"/><path class="cls-20_chart-3-1" d="M255.27,231.24c-1.01,2.39-3.26,4.04-5.85,4.27-4.85,1.19-10.04.75-14.81,2.41-1.42.6-2.88,1.11-4.35,1.55h-.44c-1.66.46-3.43.09-4.77-1-1.89-1.77-1.39-4.85-.78-7.35,1.14-4.55,3.8-10.04,1.03-14.42h0c-.39-.42-.75-.86-1.08-1.33-.34-.51-.61-1.06-.8-1.64l-1.33-3.52-2.77-7.07c-.22-.45-.33-.94-.33-1.44.16-.68.52-1.29,1.03-1.77l4.49-4.96c.84-1.11,1.93-2,3.19-2.61,1.39-.34,2.81-.5,4.24-.47,1.82-.38,3.59-.98,5.27-1.8.22-.07.45-.07.67,0,.21.15.36.38.42.64.32.77.81,1.45,1.44,2,.43.4.9.76,1.39,1.08l.64.44,3.58,2.38c.77.57,1.63,1.02,2.55,1.3,3.13.8,4.52-2.94,3.94-5.55-.38-1.41-1.04-2.73-1.94-3.88,1.41.31,2.77.64,4.21,1.03,1.32.52,2.67.94,4.05,1.25,2.08.19,3.91-.61,5.96.28,2.64,1.15,5.13,2.6,7.43,4.33l-.92,3.24c-1.14,3.94-2.52,8.32-5.96,10.45-.89.55-1.86.97-2.77,1.58-1.47,1.05-1.41,2.36-1.89,3.88-.83,2.77-1.64,5.38-2.33,8.07-.57,2.93-1.37,5.82-2.38,8.62Z"/><path class="cls-13_chart-3-1" d="M254.44,194.72c.19-.32.44-.59.75-.8.26-.12.54-.19.83-.19,3.63-.31,7.29-.53,10.93-.61-5.07-3.19-11.87-1.89-17.33-4.41-.44,1.3.47,2.77,1.03,3.91.45,1.16.69,2.39.72,3.63,1.22.07,2.39-.51,3.08-1.53Z"/><path class="cls-14_chart-3-1" d="M185.25,209.33c-.76.32-1.61.38-2.41.17-.49-.51-.9-1.09-1.22-1.72-.32-.75-.84-1.4-1.5-1.89-.95-.39-2.02-.39-2.97,0,.48-.43,1.06-.73,1.69-.86.7-.11,1.29-.59,1.55-1.25.03-.26.08-.51.17-.75.22-.36.69-.39,1.11-.39.84.07,1.68.22,2.5.44.56.12,1.11.32,1.61.61.45.27.79.69.94,1.19-.28,0-.67-.19-.97-.28-.36-.11-.73-.19-1.11-.25-.74-.09-1.5-.02-2.22.19,0,0-.22,0-.25.17s0,.25.22.33c1.19.64,2.61.8,3.8,1.53.17.07.32.2.42.36.1.24.1.51,0,.75-.18.72-.68,1.32-1.36,1.64Z"/><path class="cls-23_chart-3-1 targetColor" d="M255.91,310.32c-.44-.89-.97-1.89-1.94-2.16-.52-.1-1.05-.15-1.58-.17-1.3-.25-2.11-1.5-2.77-2.58-.66-1.25-1.44-2.44-2.33-3.55,0,0-2.08,1.94-1.83,2.61.32.65.74,1.25,1.25,1.77,1.81,2.23,3.9,4.23,6.21,5.93.72.44,2.99,2.02,3.88,1.61s-.58-2.72-.89-3.47Z" style="fill: rgb(51, 154, 255);"/><path class="cls-23_chart-3-1 targetColor" d="M180.51,329.76c-.09.78-.41,1.51-.92,2.11-.18.19-.43.3-.69.31-.24-.02-.47-.13-.64-.31-1.56-1.1-2.9-2.47-3.97-4.05-1.07-1.64-1.55-3.6-1.36-5.55.17-1.28.69-2.5.94-3.77s.22-2.27.53-3.38,1.97-1.77,3.05-2.14c.42.31-.53.94-.72,1.41-.71,1.76-1.07,3.65-1.05,5.55-.21,1.82.34,3.65,1.53,5.05.47.47,1.14.71,1.8.64.53,0,1.11-1.03,1.58-.8s.03,4.19-.08,4.94Z" style="fill: rgb(51, 154, 255);"/><path class="cls-7_chart-3-1" d="M263.17,280.49l-11.09,20.66-.47-.31c-.09-.05-.17-.1-.25-.17-.68-.51-1.31-1.1-1.86-1.75-.1-.12-.18-.26-.22-.42-.03-.11-.03-.22,0-.33,1.28-2.94,2.58-5.85,3.85-8.79.91-2.53,2.19-4.92,3.8-7.07,2.3-2.77,4.52-5.55,6.79-8.32-7.11-4.45-13.9-9.39-20.33-14.78l.36-1.11,1.55-3.11s21.3,14.86,22.18,16.31-4.33,9.18-4.33,9.18Z"/><path class="cls-4_chart-3-1" d="M230.26,239.47h-.44c-1.66.46-3.43.09-4.77-1-1.89-1.77-1.39-4.85-.78-7.35,1.14-4.55,3.8-10.04,1.03-14.42h0c.96-1.6,2.27-2.96,3.83-3.99.62-.54,1.35-.96,2.14-1.22,2.27-.55,5.1,1.53,6.82,0-.78,2.77-3.13,4.6-4.35,7.1-.54,1.25-.95,2.55-1.22,3.88-.61,2.77-1.25,5.55-1.89,8.32-.79,2.08-1.15,4.29-1.08,6.52.17.8.69,1.53.72,2.16Z"/><path class="cls-5_chart-3-1" d="M313.7,196.46c-3.47,2.16-7.02.53-10.43,3.27-1.62,1.63-3.49,2.98-5.55,3.99-1.37.45-2.81.63-4.24.53-5.96-.26-11.59-2.85-15.67-7.21-.85-1-1.77-1.93-2.77-2.77-4.16-3.16-10.2-1.14-15.25-2.47-5.1-1.48-8.63-6.14-8.65-11.45.23-1.92.35-3.86.36-5.8-.09-.64-.25-1.28-.47-1.89-.22-1.55-.19-2.19,1.3-.97,1.68,1.6,3.06,3.48,4.1,5.55,1.49,2.92,3.91,5.25,6.88,6.63,4.63,1.69,10.07-.67,14.56,1.33,2.32,1.26,4.39,2.95,6.1,4.96,1.67,2.07,4.12,3.35,6.77,3.55,1.07,0,2.08-.47,2.77-1.28-4.13-2.06-7.56-5.28-9.87-9.26,4.74,5.09,11.73,7.44,18.58,6.24-1.03,1.3-2.33,2.34-3.83,3.05,4.44.14,9.37-.22,12.51-3.38.92-.92,1.86-2.14,3.16-2.02.7.11,1.34.46,1.8,1,.68.69,1.25,1.49,1.69,2.36-.25,2.51-1.68,4.76-3.85,6.05Z"/><path class="cls-21_chart-3-1" d="M252.97,174.89c.77-.14,1.53.29,1.8,1.03.1.56-.04,1.13-.39,1.58-.66,1.07-1.63,1.92-2.77,2.44-.2.11-.43.18-.67.19-.53-.05-.96-.45-1.05-.97-.08-.51,0-1.04.25-1.5.47-1.14,1.53-2.58,2.83-2.77Z"/><path class="cls-6_chart-3-1" d="M252.63,176.72c.13-.18.3-.32.5-.42.16-.11.37-.11.53,0v.39c-.11,1.18-.88,2.19-2,2.61-.14.04-.28.04-.42,0-.53-.17-.58-1.25-.19-1.58s.5-.14.75-.22.64-.44.83-.78Z"/><path class="cls-9_chart-3-1" d="M245.29,197.35c-1.88-.22-3.68-.91-5.24-2-.98-.82-2.05-1.51-3.19-2.08-1.32-.46-2.76-.46-4.08,0-3.31,1.41-6.18,3.68-8.32,6.57-.79.79-1.41,1.74-1.83,2.77-.61,1.69,1.14,7.15-.58,7.6l-2.77-7.07c-.22-.45-.33-.94-.33-1.44.16-.68.52-1.29,1.03-1.77l4.49-4.96c.84-1.11,1.93-2,3.19-2.61,1.39-.34,2.81-.5,4.24-.47,1.82-.38,3.59-.98,5.27-1.8.22-.07.45-.07.67,0,.21.15.36.38.42.64.32.77.81,1.45,1.44,2,.43.4.9.76,1.39,1.08,1.23,1.37,2.65,2.57,4.21,3.55Z"/><path class="cls-8_chart-3-1" d="M260.4,203.31c-.19-.82-.19-1.67,0-2.5.48-1.06,1.46-1.81,2.61-2,1.14-.19,2.3-.19,3.44,0,1.28,0,2.77.55,3.08,1.8.06.59-.04,1.19-.31,1.72-.55,1.74-1.3,3.41-2.22,4.99-.69,1.05-4.66,5.1-6.29,3.94-.97-.69-.17-6.63-.31-7.96Z"/></g><g id="pie_chart_chart-3-1"><rect class="cls-20_chart-3-1" x="65.95" y="134.51" width="115.99" height="115.99" rx="12.59" ry="12.59"/><circle class="cls-23_chart-3-1 targetColor" cx="121.94" cy="188.56" r="33.55" transform="translate(-76.03 294.53) rotate(-85.27)" style="fill: rgb(51, 154, 255);"/><path class="cls-18_chart-3-1" d="M121.91,149.02v40.99l36.05-26.04s-16.39-18.33-36.05-14.95Z"/></g></svg>