<svg id="_0513_smart_phone_data" xmlns="http://www.w3.org/2000/svg" xmlns:xlink="http://www.w3.org/1999/xlink" viewBox="0 0 500 500" data-imageid="smartphone-data-94" imageName="Smartphone Data" class="illustrations_image" style="width: 177px;"><defs><style>.cls-1_smartphone-data-94{fill:#020202;opacity:.1;}.cls-1_smartphone-data-94,.cls-2_smartphone-data-94,.cls-3_smartphone-data-94,.cls-4_smartphone-data-94,.cls-5_smartphone-data-94,.cls-6_smartphone-data-94,.cls-7_smartphone-data-94,.cls-8_smartphone-data-94,.cls-9_smartphone-data-94{stroke-width:0px;}.cls-1_smartphone-data-94,.cls-3_smartphone-data-94,.cls-4_smartphone-data-94{isolation:isolate;}.cls-2_smartphone-data-94{fill:url(#linear-gradient);}.cls-3_smartphone-data-94{opacity:.18;}.cls-3_smartphone-data-94,.cls-9_smartphone-data-94{fill:#68e1fd;}.cls-4_smartphone-data-94{opacity:.73;}.cls-4_smartphone-data-94,.cls-8_smartphone-data-94{fill:#fff;}.cls-5_smartphone-data-94{fill:#473f47;}.cls-6_smartphone-data-94{fill:#c14834;}.cls-7_smartphone-data-94{fill:#7d443c;}</style><linearGradient id="linear-gradient-smartphone-data-94" x1="794.85" y1="4093.86" x2="778.88" y2="3878.52" gradientTransform="translate(-483.35 4387.08) scale(1 -1)" gradientUnits="userSpaceOnUse"><stop offset="0" stop-color="#231f20"/><stop offset=".08" stop-color="#231f20" stop-opacity=".69"/><stop offset=".21" stop-color="#231f20" stop-opacity=".32"/><stop offset="1" stop-color="#231f20" stop-opacity="0"/></linearGradient></defs><g id="background_smartphone-data-94"><path class="cls-3_smartphone-data-94 targetColor" d="M123.7,132.7c-5.39,14.24-9.86,28.81-13.36,43.62-8.66,35.07-32.73,62.42-51.89,92.49-15.85,24.77-28.76,53.48-25.28,82.69,3.85,32.13,27.57,59.45,56.25,74.42,31.56,16.56,75.5,26.64,109.1,13.76,55.6-21.34,116.41-21.03,173.45-38.16,26.36-7.9,53.14-18.03,72.5-37.59,34.5-34.89,36.55-90.38,4.73-127.73-22.22-26.13-52.4-38.16-70.63-68.65-16.08-26.87-26.27-57.44-46.82-81.53-42.77-49.97-117.95-55.81-167.92-13.04-2.65,2.27-5.21,4.66-7.65,7.15-14.26,15.15-25.31,33.03-32.47,52.57Z" style="fill: rgb(51, 154, 255);"/><path class="cls-2_smartphone-data-94" d="M331.68,377.8l32.81,2.55c1.55-.02,3.09.38,4.44,1.13,1.99,1.59,2.76,4.28,1.9,6.68-.91,2.33-2.48,4.36-4.5,5.83-11.89,9.71-28.62,10.08-43.99,9.99l-72.5-.45c-2.8.18-5.61-.23-8.24-1.22-2.67-1.05-4.39-3.67-4.3-6.54.62-2.47,2.3-4.54,4.59-5.66,6.52-3.54,13.64-5.8,21.01-6.68,11.04-1.89,22.1-3.77,33.18-5.66"/></g><g id="phone_smartphone-data-94"><rect class="cls-9_smartphone-data-94 targetColor" x="139.49" y="90.8" width="156.04" height="301.75" rx="22.45" ry="22.45" style="fill: rgb(51, 154, 255);"/><rect class="cls-5_smartphone-data-94" x="142.58" y="94.6" width="149.9" height="293.65" rx="21.68" ry="21.68"/><path class="cls-8_smartphone-data-94" d="M288.37,118.77v242.35c-.12,11.43-9.49,20.61-20.92,20.5h-99.79c-3.66-.03-7.25-1.01-10.42-2.83-6.47-3.58-10.5-10.38-10.53-17.78V118.77c.12-11.45,9.5-20.63,20.95-20.52h16.99v3c.04,3.98,2.48,7.54,6.17,9.03,1.21.49,2.51.74,3.82.74h46.46c5.53.06,10.07-4.37,10.13-9.91,0,0,0,0,0,0v-2.83h16.33c5.36-.02,10.52,2.01,14.44,5.66,4.09,3.85,6.39,9.22,6.37,14.83Z"/><path class="cls-9_smartphone-data-94 targetColor" d="M288.37,118.77v242.35c-.12,11.43-9.49,20.61-20.92,20.5h-99.79c-3.66-.03-7.25-1.01-10.42-2.83-4.1-3.83-6.44-9.19-6.45-14.81V121.74c.12-11.44,9.5-20.62,20.95-20.5,0,0,0,0,0,0h12.74c.07,4.02,2.58,7.6,6.34,9.03,1.93,2.33,4.79,3.69,7.81,3.71h46.46c5.53.08,10.08-4.34,10.16-9.88,0-.02,0-.04,0-.06v-2.83h16.33c3.64.04,7.21,1.02,10.36,2.83,4.08,3.81,6.4,9.14,6.43,14.72Z" style="fill: rgb(51, 154, 255);"/><path class="cls-5_smartphone-data-94" d="M193.2,314.1c.02-3.91.87-7.77,2.49-11.32l-16.99-9.29c-3.21,6.4-4.89,13.45-4.93,20.61,0,21.48,14.59,40.22,35.41,45.49l3.43-19.19c-11.54-3.56-19.41-14.22-19.42-26.3Z"/><path class="cls-4_smartphone-data-94" d="M260.91,338.19c-10.68,17.73-31.7,26.41-51.78,21.37l3.43-19.19c11.78,3.53,24.47-1.16,31.14-11.49l17.21,9.31Z"/><path class="cls-8_smartphone-data-94" d="M267.65,314.1c-.02,8.49-2.35,16.82-6.74,24.09l-16.99-9.31c8.4-12.66,4.95-29.74-7.72-38.14s-29.74-4.95-38.14,7.72c-.87,1.32-1.63,2.71-2.27,4.15l-16.99-9.29c11.68-23.14,39.91-32.43,63.05-20.74,15.69,7.92,25.64,23.95,25.78,41.52Z"/><rect class="cls-4_smartphone-data-94" x="155.54" y="153.2" width="125.07" height="90.76" rx="5.86" ry="5.86"/><polygon class="cls-8_smartphone-data-94" points="161.32 191.19 181.28 172.62 208.77 205.77 232.83 184.7 242.79 193.28 265.16 163.39 276.51 177.09 276.51 237.08 161.32 237.08 161.32 191.19"/><polygon class="cls-9_smartphone-data-94 targetColor" points="208.71 206.61 181.22 173.49 161.74 191.61 160.92 190.73 181.33 171.74 208.85 204.89 232.83 183.91 242.71 192.4 265.13 162.42 276.96 176.69 276.03 177.48 265.19 164.38 242.91 194.16 232.83 185.52 208.71 206.61" style="fill: rgb(51, 154, 255);"/><circle class="cls-9_smartphone-data-94 targetColor" cx="181.08" cy="172.67" r="2.49" style="fill: rgb(51, 154, 255);"/><circle class="cls-9_smartphone-data-94 targetColor" cx="209.19" cy="205.6" r="2.49" style="fill: rgb(51, 154, 255);"/><circle class="cls-9_smartphone-data-94 targetColor" cx="232.83" cy="184.7" r="2.49" style="fill: rgb(51, 154, 255);"/><circle class="cls-9_smartphone-data-94 targetColor" cx="242.79" cy="193.28" r="2.49" style="fill: rgb(51, 154, 255);"/><circle class="cls-9_smartphone-data-94 targetColor" cx="265.16" cy="163.39" r="2.49" style="fill: rgb(51, 154, 255);"/><circle class="cls-9_smartphone-data-94 targetColor" cx="276.51" cy="177.09" r="2.49" style="fill: rgb(51, 154, 255);"/></g><g id="character_smartphone-data-94"><path class="cls-6_smartphone-data-94" d="M310.68,384.31c.07,1.69-.25,3.38-.93,4.93-.83,1.45-2.07,2.61-3.57,3.34-3.23,1.67-6.98,2.04-10.47,1.02-.48-.08-.91-.33-1.22-.71-.17-.32-.25-.68-.23-1.05.3-1.94,1.31-3.69,2.83-4.93,1.5-1.22,2.78-2.68,3.79-4.33,1.59-3.26.4-11.86,6.51-10.5,5.01,1.16,3.43,8.63,3.28,12.23Z"/><path class="cls-9_smartphone-data-94 targetColor" d="M311.53,390.17s.85,2.12-.2,3.37c-1.05,1.25-12.03,8.07-19.42,2.58-7.39-5.49,10.02-6.2,10.02-6.2l9.6.25Z" style="fill: rgb(51, 154, 255);"/><path class="cls-8_smartphone-data-94" d="M311.1,385.19c-.7-.34-1.53-.12-1.98.51-1.47,1.58-3.62,2.33-5.75,2.01-2.41-.59-3.37-3.37-4.56-3.37s-7.59,5.41-7.95,7.76,2.83,4.05,6.51,4.27,11.78-2.26,13.33-4.16c1.25-2.14,1.4-4.75.4-7.02Z"/><path class="cls-6_smartphone-data-94" d="M331.68,387.71c.07,1.69-.25,3.38-.93,4.93-.82,1.45-2.06,2.62-3.57,3.34-3.23,1.67-6.98,2.04-10.47,1.02-.48-.08-.91-.33-1.22-.71-.17-.32-.25-.68-.23-1.05.3-1.94,1.31-3.69,2.83-4.93,1.5-1.22,2.78-2.68,3.79-4.33,1.59-3.26.4-11.86,6.51-10.47,4.95,1.08,3.28,8.55,3.28,12.2Z"/><path class="cls-9_smartphone-data-94 targetColor" d="M332.48,393.51s.85,2.12-.2,3.37c-1.05,1.25-12.03,8.07-19.42,2.58-7.39-5.49,9.99-6.2,9.99-6.2l9.63.25Z" style="fill: rgb(51, 154, 255);"/><path class="cls-8_smartphone-data-94" d="M332.05,388.53c-.7-.34-1.53-.12-1.98.51-1.47,1.68-3.69,2.48-5.89,2.12-2.41-.59-3.37-3.37-4.56-3.37s-7.59,5.41-7.95,7.76,2.83,4.05,6.51,4.27,11.78-2.26,13.33-4.16c1.34-2.15,1.54-4.81.54-7.13Z"/><path class="cls-5_smartphone-data-94" d="M335.99,297.49s1.16,62.73-3.51,83.68l-11.78,1.44-8.18-85.92,23.47.79Z"/><path class="cls-5_smartphone-data-94" d="M299.55,290.64s-5.66,33.97,1.19,88.18l11.78,1.47,8.18-86-21.15-3.65Z"/><path class="cls-8_smartphone-data-94" d="M285.74,263.63c0,2.26.88,4.25,2.83,4.9h.51c3.62.74,8.49-2.04,11.69-4.44,1.37-1,2.68-2.06,3.93-3.2v-24.12l-17.61,18.03c-.92,2.85-1.38,5.83-1.36,8.83Z"/><path class="cls-8_smartphone-data-94" d="M300.54,264.17v3.4c0,6.28,1.44,12.74-.42,18.88-.6,1.31-.78,2.77-.51,4.19.55,1.13,1.48,2.02,2.63,2.52,5.7,2.67,11.84,4.3,18.12,4.81,4.67.65,11.32,2.04,15.65-.48,1.64-1.23,2.73-3.05,3.06-5.07,1.64-6.49,2.59-13.13,2.83-19.82,0-.88,0-1.73.17-2.6.36-6,.48-12,.37-18,0-4.33-.42-9.06-3.26-12.34-4.57-4.4-10.38-7.29-16.65-8.29-1.81-.35-3.66-.44-5.49-.28-2.59.4-5.09,1.25-7.39,2.52-2.74.92-5.06,2.78-6.57,5.24-1.49,3.14-2.53,6.48-3.09,9.91-.49,3.22-.55,6.5-.17,9.74.17,1.61.57,3.17.74,4.76-.03.34-.03.62-.03.93Z"/><path class="cls-1_smartphone-data-94" d="M326.19,299.61c1.81.54,6-1.13,7.39-1.36.82-.17,1.59-.57,2.41-.76,4.16-1.05,4.64-12.68,5.04-15.82,1.43-8.34,2.38-16.75,2.83-25.19.19-3.2-.18-6.41-1.1-9.48-.94-3.11-3.21-5.64-6.2-6.91-5.29-1.93-6.88,14.83-7.62,18.32l-3.96,18.91c-.56,2.32-.93,4.69-1.1,7.08.1,2.91.7,5.79,1.78,8.49.48,1.64-.85,4.81-.2,6.03.11.35.38.62.74.71Z"/><path class="cls-6_smartphone-data-94" d="M313.42,226.35c.67.72,1.57,1.17,2.55,1.27.82.07,1.64.07,2.46,0h.48c.21-.05.43.09.47.3,0,.04.01.08,0,.12.14,1.64.14,3.29,0,4.93h0v.91c-.09.31-.09.63,0,.93.24.33.59.56.99.65.72.23,1.48.36,2.24.37,1.62-.15,3.17-.69,4.53-1.59-.12-2.84.03-5.68.45-8.49.84-3.51,1.26-7.12,1.25-10.73-.1-1.43-.62-2.8-1.5-3.93-1.44-1.36-3.38-2.05-5.35-1.93-2.59-.04-5.13.66-7.33,2.01-.68.52-1.08,1.32-1.1,2.18-.25,1.42-.48,2.83-.65,4.27-.17,1.44-.28,3.28-.31,4.93-.17,1.32.12,2.66.82,3.79Z"/><path class="cls-5_smartphone-data-94" d="M316.31,211.94l.4.14c.35.16.72.25,1.1.25.38.01.74-.18.93-.51-.07.27.02.55.23.74.21.18.47.3.74.37.45.17.91.28,1.39.34.46.04.93-.09,1.3-.37.31.4.82.59,1.13.99.41.49.73,1.06.93,1.67.41,1.21.41,2.52,0,3.74.71.25.85-.99,1.39-1.53s1.76.2,1.84,1.08c-.05.88-.31,1.74-.76,2.49-.45,1.02-1.19,6.91,1.44,4.84.48-.45.82-1.03.99-1.67l1.5-4.16c.5.11,1.01-.14,1.25-.59.19-.48.06-1.03-.34-1.36.64.45,1.52.3,1.97-.34.28-.4.34-.91.15-1.36.78-.11,1.35-.77,1.36-1.56-.06-.77-.67-1.39-1.44-1.47,1-.36,1.52-1.46,1.16-2.46-.36-1-1.46-1.52-2.46-1.16h0c.61-1.42.15-3.06-1.1-3.96-.79-.67-1.79-1.05-2.83-1.08h-.74c-.14,0-.2-.48-.28-.59-.27-.41-.68-.71-1.16-.82-.69-.16-1.42.07-1.9.59-.29-1.04-1.09-1.86-2.12-2.18-1.06-.27-2.16.24-2.63,1.22-.57-.53-1.24-.94-1.98-1.19-.41-.17-.86-.23-1.3-.17-.93.28-1.62,1.07-1.76,2.04-.2,0-.42,0-.65-.14-.52-.11-1.03.22-1.16.74-.11.51.1,1.04.54,1.33-.35.15-.64.42-.82.76-.14.34,0,.85.45.85-.58.39-.74,1.18-.35,1.77.3.44.84.65,1.36.52-.32.05-.59.28-.68.59-.07.3-.07.61,0,.91-.03.07-.03.15,0,.23.08.04.17.04.25,0,.59,0,1.3,0,1.61-.4,0,.25.23.45.48.54l.57.34Z"/><path class="cls-7_smartphone-data-94" d="M318.43,227.56h.48c.21-.05.43.09.47.3,0,.04.01.08,0,.12.14,1.64.14,3.29,0,4.93h0c2.99-.95,4.89-3.87,4.56-6.99-1.82.75-3.72,1.3-5.66,1.64h.14Z"/><path class="cls-8_smartphone-data-94" d="M271.05,257.49c2.31,3.3,5.19,6.18,8.49,8.49,2.37,1.6,5.11,2.57,7.95,2.83.36.07.74.07,1.1,0,.61-.18,1.14-.55,1.53-1.05,1.19-1.42,1.91-3.19,2.04-5.04.2-4.81-5.04-7.64-5.04-7.64,0,0-12.06-4.08-13.36-3.45-.76.34-1.5,2.01-2.01,3.48s-.71,2.38-.71,2.38Z"/><path class="cls-1_smartphone-data-94" d="M271.05,257.49c2.31,3.3,5.19,6.18,8.49,8.49,2.37,1.6,5.11,2.57,7.95,2.83.36.07.74.07,1.1,0h.51c3.62.74,8.49-2.04,11.69-4.44h0l-1.13-7.25c-2.16,2.29-4.69,4.2-7.47,5.66-1.95,1.07-4.19,1.49-6.4,1.19-.6-.09-1.18-.26-1.73-.51-4.42-2.12-8.54-4.82-12.26-8.01-.48.88-.76,2.04-.76,2.04Z"/><path class="cls-8_smartphone-data-94" d="M349.94,265.27c1.84,4.16,2.64,8.71,2.32,13.25-.79,5.44-4.42,9.99-7.9,14.15-2.83.42-6.31.37-7.3-2.24-.23-.84-.28-1.71-.17-2.58l.4-5.66c.32-2.5.19-5.05-.4-7.5-1.08-2.65-2.49-5.16-4.22-7.45-2.46-3.96-3.91-8.46-4.25-13.11-.31-4.39,3-18.49,9.43-14.15,2.66,1.73,5.04,8.97,6.45,11.89,2.09,4.4,3.97,8.86,5.63,13.39Z"/><path class="cls-6_smartphone-data-94" d="M335.42,296.58c-.14.22-.22.47-.23.74,0,.25.31.51.57.4.65,2.01-.71,4.13-.71,6.26-.03.18-.03.36,0,.54.1.24.27.44.48.59.73.44,1.63.5,2.41.14.76-.36,1.44-.87,2.01-1.5,1.27-1.1,2.24-2.5,2.83-4.08.2-.73.34-1.48.4-2.24l.68-5.66c-4.27-1.22-6.51,1.53-8.44,4.81Z"/><path class="cls-6_smartphone-data-94" d="M271.78,247.01c-.11-.38-.33-.73-.62-.99-.28-.27-.73-.27-1.02,0-.11.21-.18.44-.2.68-.21.51-.72.82-1.27.79-.54-.01-1.07-.14-1.56-.37-1.42-.53-2.86-.97-4.33-1.33-.34-.11-.71-.11-1.05,0-.36.19-.63.52-.74.91-.62,1.81-.28,3.82.91,5.32,1.19,1.49,2.83,2.56,4.67,3.06,1.84.52,3.75.8,5.66.82.47.08.95.02,1.39-.17,2.18-1.36-1.25-7.25-1.84-8.72Z"/></g><g id="pie_chart_smartphone-data-94"><rect class="cls-8_smartphone-data-94" x="88.17" y="221.9" width="90.42" height="90.42" rx="9.82" ry="9.82"/><circle class="cls-9_smartphone-data-94 targetColor" cx="131.82" cy="264.05" r="26.16" transform="translate(-140.91 376.83) rotate(-85.93)" style="fill: rgb(51, 154, 255);"/><path class="cls-5_smartphone-data-94" d="M131.79,233.23v31.96l28.11-20.3s-12.8-14.27-28.11-11.66Z"/></g></svg>